<?xml version="1.0" encoding="utf-8"?>
<!-- Generator: Adobe Illustrator 16.0.0, SVG Export Plug-In . SVG Version: 6.00 Build 0)  -->
<!DOCTYPE svg PUBLIC "-//W3C//DTD SVG 1.1//EN" "http://www.w3.org/Graphics/SVG/1.1/DTD/svg11.dtd">
<svg version="1.1" id="Layer_1" xmlns="http://www.w3.org/2000/svg" xmlns:xlink="http://www.w3.org/1999/xlink" x="0px" y="0px"
	 width="49.02px" height="44.237px" viewBox="0 0 49.02 44.237" enable-background="new 0 0 49.02 44.237" xml:space="preserve">
<g>
	<defs>
		<rect id="SVGID_1_" width="49.02" height="44.237"/>
	</defs>
	<clipPath id="SVGID_2_">
		<use xlink:href="#SVGID_1_"  overflow="visible"/>
	</clipPath>
	<path clip-path="url(#SVGID_2_)" fill="#FFFFFF" d="M49.021,20.998c0,5.272-4.275,9.547-9.548,9.547h-5.971v-4.535
		c-0.118-5.161,4.869-5.28,7.101-5.518c-3.232-3.966-8.438-5.74-12.447-5.74c-7.917,0-12.87,4.652-12.87,12.47v3.324H9.548
		C4.275,30.544,0,26.27,0,20.998c0-4.876,3.656-8.896,8.376-9.474C8.72,6.492,14.21,3.628,18.515,6.063
		C20.803,2.421,24.856,0,29.476,0c6.794,0,12.365,5.239,12.894,11.898C46.227,13.125,49.021,16.734,49.021,20.998 M29.934,26.009
		c0-3.66,0.72-5.769,3.799-6.763c-2.389-1.005-14.877-3.428-14.877,7.975v7.009h-4.451l9.99,10.006l9.989-10.006h-4.45V26.009z"/>
</g>
</svg>
