<?xml version="1.0" encoding="utf-8"?>
<!-- Generator: Adobe Illustrator 16.0.0, SVG Export Plug-In . SVG Version: 6.00 Build 0)  -->
<!DOCTYPE svg PUBLIC "-//W3C//DTD SVG 1.1//EN" "http://www.w3.org/Graphics/SVG/1.1/DTD/svg11.dtd">
<svg version="1.1" id="Layer_1" xmlns="http://www.w3.org/2000/svg" xmlns:xlink="http://www.w3.org/1999/xlink" x="0px" y="0px"
	 width="38.214px" height="41px" viewBox="0 0 38.214 41" enable-background="new 0 0 38.214 41" xml:space="preserve">
<g>
	<defs>
		<rect id="SVGID_1_" width="38.214" height="41"/>
	</defs>
	<clipPath id="SVGID_2_">
		<use xlink:href="#SVGID_1_"  overflow="visible"/>
	</clipPath>
	<path clip-path="url(#SVGID_2_)" fill="#FFFFFF" d="M20.319,29.038c-0.764-1.034-0.874-2.849-0.763-3.964
		c2.1,0.503,4.62,0.408,6.469-0.891c2.408-1.691,2.832-7.242-2.644-7.242c-3.068,0-5.645,2.159-6.722,4.688
		c-1.157,2.716-1.32,6.585,0.762,8.717c2.437,2.494,6.799,2.359,9.505-1.792l-0.915-0.939C24.563,29.912,21.855,31.12,20.319,29.038
		 M23.013,18.517c1.854,0,1.642,2.883,0.292,4.346c-1.118,1.213-2.922,1.143-3.646,1.143C19.916,21.902,20.889,18.517,23.013,18.517
		 M5.971,7.218c-2.35,0-2.35-3.436,0-3.436h32.243V0H4.976C2.228,0,0,2.228,0,4.976v31.048C0,38.772,2.228,41,4.976,41h33.238V7.218
		H5.971z M34.233,37.019H9.108V11.254h25.125V37.019z"/>
</g>
</svg>
