<?xml version="1.0" encoding="utf-8"?>
<!-- Generator: Adobe Illustrator 16.0.0, SVG Export Plug-In . SVG Version: 6.00 Build 0)  -->
<!DOCTYPE svg PUBLIC "-//W3C//DTD SVG 1.1//EN" "http://www.w3.org/Graphics/SVG/1.1/DTD/svg11.dtd">
<svg version="1.1" id="Layer_1" xmlns="http://www.w3.org/2000/svg" xmlns:xlink="http://www.w3.org/1999/xlink" x="0px" y="0px"
	 width="52.348px" height="26.265px" viewBox="0 0 52.348 26.265" enable-background="new 0 0 52.348 26.265" xml:space="preserve">
<g>
	<defs>
		<rect id="SVGID_1_" width="52.348" height="26.265"/>
	</defs>
	<clipPath id="SVGID_2_">
		<use xlink:href="#SVGID_1_"  overflow="visible"/>
	</clipPath>
	<path clip-path="url(#SVGID_2_)" fill="#FFFFFF" d="M52.344,26.265H42.187c0-11.054-5.525-5.8-5.525-15.487
		c0-3.496,2.29-5.394,5.229-5.394c4.344,0,7.365,4.147,3.253,11.9c-1.351,2.548,1.438,3.152,4.437,3.844
		C52.574,21.819,52.344,23.399,52.344,26.265 M2.769,21.128c2.998-0.691,5.787-1.296,4.436-3.844c-4.112-7.753-1.09-11.9,3.253-11.9
		c2.939,0,5.228,1.898,5.228,5.394c0,9.687-5.525,4.433-5.525,15.487H0.004C0.004,23.399-0.226,21.819,2.769,21.128 M35.845,19.804
		c-3.77-0.87-7.278-1.631-5.579-4.835C35.439,5.216,31.637,0,26.174,0c-5.57,0-9.279,5.416-4.091,14.969
		c1.75,3.223-1.891,3.984-5.58,4.835c-3.768,0.869-3.479,2.856-3.479,6.461h26.299C39.323,22.661,39.613,20.673,35.845,19.804"/>
</g>
</svg>
