<?xml version="1.0" encoding="utf-8"?>
<!-- Generator: Adobe Illustrator 16.0.0, SVG Export Plug-In . SVG Version: 6.00 Build 0)  -->
<!DOCTYPE svg PUBLIC "-//W3C//DTD SVG 1.1//EN" "http://www.w3.org/Graphics/SVG/1.1/DTD/svg11.dtd">
<svg version="1.1" id="Layer_1" xmlns="http://www.w3.org/2000/svg" xmlns:xlink="http://www.w3.org/1999/xlink" x="0px" y="0px"
	 width="48.604px" height="39.613px" viewBox="0 0 48.604 39.613" enable-background="new 0 0 48.604 39.613" xml:space="preserve">
<g>
	<defs>
		<rect id="SVGID_1_" y="0" width="48.604" height="39.613"/>
	</defs>
	<clipPath id="SVGID_2_">
		<use xlink:href="#SVGID_1_"  overflow="visible"/>
	</clipPath>
	<path clip-path="url(#SVGID_2_)" fill="#FFFFFF" d="M42.226,15.637c-4.646,0.243-10.474,1.759-14.139,3.167v-2.369
		c3.925-1.329,9.259-2.812,14.139-3.068V15.637z M42.226,17.536c-4.88,0.256-10.214,1.739-14.139,3.067v2.369
		c3.665-1.408,9.493-2.923,14.139-3.167V17.536z M42.226,7.626c-4.88,0.256-10.214,1.739-14.139,3.067v3.903
		c3.665-1.408,9.493-2.923,14.139-3.167V7.626z M48.604,0v34.133c-8.687,0.417-16.596,1.935-24.302,5.48
		C16.596,36.067,8.687,34.55,0,34.133V0c8.554,0.421,18.099,2.17,24.302,5.556C30.505,2.17,40.05,0.421,48.604,0 M23.23,9.157
		C18.158,6.122,9.805,4.604,3.539,3.851v26.964c7.174,0.584,14.041,2.09,19.691,4.27V9.157z M45.065,3.851
		c-6.267,0.753-14.619,2.271-19.692,5.306v25.928c5.651-2.18,12.518-3.686,19.692-4.27V3.851z M42.226,21.743
		c-4.88,0.257-10.214,1.74-14.139,3.067v2.369c3.665-1.407,9.493-2.923,14.139-3.167V21.743z M42.226,26.03
		c-4.88,0.256-10.214,1.738-14.139,3.066v2.369c3.665-1.408,9.493-2.923,14.139-3.167V26.03z M20.517,16.435
		c-3.925-1.329-9.26-2.812-14.14-3.068v2.27c4.647,0.243,10.475,1.759,14.14,3.167V16.435z M20.517,29.097
		c-3.925-1.328-9.26-2.811-14.14-3.066v2.269c4.647,0.244,10.475,1.759,14.14,3.167V29.097z M20.517,10.693
		c-3.925-1.328-9.26-2.811-14.14-3.067v3.803c4.647,0.244,10.475,1.759,14.14,3.167V10.693z M20.517,24.811
		c-3.925-1.327-9.26-2.811-14.14-3.067v2.27c4.647,0.244,10.475,1.76,14.14,3.167V24.811z M20.517,20.603
		c-3.925-1.328-9.26-2.811-14.14-3.067v2.269c4.647,0.244,10.475,1.759,14.14,3.167V20.603z"/>
</g>
</svg>
