<?xml version="1.0" encoding="utf-8"?>
<!-- Generator: Adobe Illustrator 16.0.0, SVG Export Plug-In . SVG Version: 6.00 Build 0)  -->
<!DOCTYPE svg PUBLIC "-//W3C//DTD SVG 1.1//EN" "http://www.w3.org/Graphics/SVG/1.1/DTD/svg11.dtd">
<svg version="1.1" id="Layer_1" xmlns="http://www.w3.org/2000/svg" xmlns:xlink="http://www.w3.org/1999/xlink" x="0px" y="0px"
	 width="47.854px" height="37.985px" viewBox="0 0 47.854 37.985" enable-background="new 0 0 47.854 37.985" xml:space="preserve">
<g>
	<defs>
		<rect id="SVGID_1_" y="0" width="47.854" height="37.985"/>
	</defs>
	<clipPath id="SVGID_2_">
		<use xlink:href="#SVGID_1_"  overflow="visible"/>
	</clipPath>
	<path clip-path="url(#SVGID_2_)" fill="#FFFFFF" d="M16.687,17.584c0-1.646,1.335-2.981,2.982-2.981
		c1.646,0,2.981,1.335,2.981,2.981c0,1.647-1.335,2.982-2.981,2.982C18.022,20.566,16.687,19.231,16.687,17.584 M3.906,3.906h36.792
		V0H0v30.949h3.906V3.906z M31.809,17.68l-4.941,7.021l-2.687-2.768l-7.578,8.61h23.688L31.809,17.68z M47.854,37.985H7.621V7.615
		h40.232V37.985z M43.948,11.521H11.527v22.558h32.421V11.521z"/>
</g>
</svg>
