<?xml version="1.0" encoding="utf-8"?>
<!-- Generator: Adobe Illustrator 16.0.0, SVG Export Plug-In . SVG Version: 6.00 Build 0)  -->
<!DOCTYPE svg PUBLIC "-//W3C//DTD SVG 1.1//EN" "http://www.w3.org/Graphics/SVG/1.1/DTD/svg11.dtd">
<svg version="1.1" id="Layer_1" xmlns="http://www.w3.org/2000/svg" xmlns:xlink="http://www.w3.org/1999/xlink" x="0px" y="0px"
	 width="43.417px" height="46.184px" viewBox="0 0 43.417 46.184" enable-background="new 0 0 43.417 46.184" xml:space="preserve">
<path fill="#FFFFFF" d="M0,46.184h12.004v-11.65H0V46.184z M15.534,46.184h12.123V29.001H15.534V46.184z M31.069,46.184h12.12V21.47
	h-12.12V46.184z M20.982,18.083l-5.367-5.073L0.593,27.977l3.696,3.634L15.46,20.439l5.533,5.235l9.884-9.648l-3.8-3.801
	L20.982,18.083z M28.693,10.671l3.788,3.789l1.97-1.922l-3.774-3.774L28.693,10.671z M32.294,7.209l3.762,3.762l1.912-1.868
	l-3.746-3.746L32.294,7.209z M33.713,1.679l7.87,7.87L43.417,0L33.713,1.679z"/>
</svg>
