<svg xmlns="http://www.w3.org/2000/svg" width="249.83" height="185.157" viewBox="0 0 249.83 185.157"><path fill="#333" d="M0 0h249.83v185.157H0z"/><path fill="#939598" d="M110.036 41.822c0-8.412 3.68-13.146 13.144-13.146 9.463 0 13.144 4.734 13.144 13.146V80.99h38.643c6.835 0 13.144 3.678 13.144 13.143 0 9.463-6.308 13.144-13.143 13.144h-38.643v38.643c0 8.413-3.68 13.144-13.144 13.144-9.462 0-13.144-4.73-13.144-13.144v-38.643H71.394c-6.834 0-13.144-3.68-13.144-13.144 0-9.465 6.31-13.143 13.144-13.143h38.643V41.822z"/></svg>