<svg xmlns="http://www.w3.org/2000/svg" xmlns:xlink="http://www.w3.org/1999/xlink" width="49.02" height="44.237" viewBox="0 0 49.02 44.237"><defs><path id="a" d="M0 0h49.02v44.237H0z"/></defs><clipPath id="b"><use xlink:href="#a" overflow="visible"/></clipPath><path clip-path="url(#b)" fill="#fff" d="M49.02 20.998c0 5.272-4.274 9.547-9.547 9.547h-5.97V26.01c-.12-5.16 4.868-5.28 7.1-5.518-3.232-3.966-8.438-5.74-12.447-5.74-7.917 0-12.87 4.652-12.87 12.47v3.324H9.548C4.275 30.544 0 26.27 0 20.998c0-4.876 3.656-8.896 8.376-9.474.344-5.032 5.834-7.896 10.14-5.46C20.802 2.42 24.855 0 29.475 0 36.27 0 41.84 5.24 42.37 11.898c3.857 1.227 6.65 4.836 6.65 9.1m-19.086 5.01c0-3.66.72-5.768 3.8-6.762-2.39-1.005-14.878-3.428-14.878 7.975v7.01h-4.45l9.99 10.006 9.988-10.006h-4.45v-8.22z"/></svg>