<svg xmlns="http://www.w3.org/2000/svg" xmlns:xlink="http://www.w3.org/1999/xlink" width="249.83" height="185.157" viewBox="0 0 249.83 185.157"><defs><path id="a" d="M0 0h249.83v185.157H0z"/></defs><clipPath id="b"><use xlink:href="#a" overflow="visible"/></clipPath><path clip-path="url(#b)" fill="#D0D2D3" d="M236.296 30.228c-.382-6.92-3.012-10.514-11.44-10.514H116.098c-3.614 0-9.2-.658-9.2-6.243C106.9 4.27 103.94 0 93.756 0H36.584c-8.872 0-12.486 3.943-12.486 12.815 0 8.313-9.235 5.373-10.395 17.413h222.593z"/><defs><path id="c" d="M12.79 30.227C3.64 30.227.035 35.445 0 42.17v.2c.003.58.032 1.17.086 1.767 0 0 3.132 34.394 4.16 55.09 1.022 20.698 2.14 71.787 2.14 71.787 0 12.99-.17 14.046 14.29 14.046l208.878.097h.425c13.228 0 13.637-.076 13.637-13.894 0 0 .204-33.134 2.13-63.66 1.924-30.518 4.035-63.43 4.035-63.43.487-7.675-2.564-13.946-13.076-13.946H12.79z"/></defs><linearGradient id="d" gradientUnits="userSpaceOnUse" x1="124.915" y1="30.227" x2="124.915" y2="185.158"><stop offset="0" stop-color="#969696"/><stop offset="1" stop-color="#616161"/></linearGradient><use xlink:href="#c" overflow="visible" fill="url(#d)"/><clipPath id="e"><use xlink:href="#c" overflow="visible"/></clipPath><linearGradient id="f" gradientUnits="userSpaceOnUse" x1=".025" y1="185.06" x2=".025" y2="186.039" gradientTransform="matrix(202.554 0 0 158.338 120 -29271.691)"><stop offset="0" stop-color="#969696"/><stop offset="1" stop-color="#616161"/></linearGradient><path clip-path="url(#e)" fill="url(#f)" d="M0 30.227h250.27v154.93H0z"/><path fill="#524F4F" d="M160.726 121.057h-26.71v26.71h-20.628v-26.71h-26.71V100.43h26.71V73.72h20.627v26.71h26.71v20.627zm20.43-11.365c0-32.146-26.016-58.157-58.156-58.157-32.146 0-58.157 26.017-58.157 58.157 0 32.146 26.016 58.157 58.157 58.157 32.146 0 58.157-26.017 58.157-58.158"/><path fill="none" d="M64.843 51.535h116.314V167.85H64.843z"/></svg>