<svg xmlns="http://www.w3.org/2000/svg" xmlns:xlink="http://www.w3.org/1999/xlink" width="249.83" height="185.157" viewBox="0 0 249.83 185.157"><defs><path id="a" d="M0 0h249.83v185.157H0z"/></defs><clipPath id="b"><use xlink:href="#a" overflow="visible"/></clipPath><path clip-path="url(#b)" fill="#D0D2D3" d="M236.296 30.228c-.382-6.92-3.012-10.514-11.44-10.514H116.098c-3.614 0-9.2-.658-9.2-6.243C106.9 4.27 103.94 0 93.756 0H36.584c-8.872 0-12.486 3.943-12.486 12.815 0 8.313-9.235 5.373-10.395 17.413h222.593z"/><defs><path id="c" d="M12.79 30.227C3.64 30.227.035 35.445 0 42.17v.2c.003.58.032 1.17.086 1.767 0 0 3.132 34.394 4.16 55.09 1.022 20.698 2.14 71.787 2.14 71.787 0 12.99-.17 14.046 14.29 14.046l208.878.097h.425c13.228 0 13.637-.076 13.637-13.894 0 0 .204-33.134 2.13-63.66 1.924-30.518 4.035-63.43 4.035-63.43.487-7.675-2.564-13.946-13.076-13.946H12.79z"/></defs><clipPath id="d"><use xlink:href="#c" overflow="visible"/></clipPath><radialGradient id="e" cx="0" cy="185.157" r="1" gradientTransform="matrix(202.554 0 0 158.338 120 -29271.691)" gradientUnits="userSpaceOnUse"><stop offset="0" stop-color="#BA1E2D"/><stop offset=".251" stop-color="#B51E2D"/><stop offset=".55" stop-color="#A61E2D"/><stop offset=".872" stop-color="#8F1E2D"/><stop offset="1" stop-color="#831E2D"/></radialGradient><path clip-path="url(#d)" fill="url(#e)" d="M0 30.227h250.27v154.93H0z"/></svg>