<svg xmlns="http://www.w3.org/2000/svg" xmlns:xlink="http://www.w3.org/1999/xlink" width="237.866" height="134.089" viewBox="0 0 237.866 134.089"><defs><path id="a" d="M0 0h237.866v134.09H0z"/></defs><clipPath id="b"><use xlink:href="#a" overflow="visible"/></clipPath><path clip-path="url(#b)" fill="#AD152F" d="M31.378 0C12.9 0 0 10.712 0 26.05v17.16c0 16.618 11.072 22.54 15.242 24.77 3.48 1.855 23.246 11.397 25.836 12.652 1.54.768 4.155 2.464 5.08 3.642 1.076 1.363 1.45 2.015 1.45 3.904v18.83c0 7.804-8.934 10.638-14.936 10.638H31.38c-6.004 0-14.935-2.834-14.935-10.64V82.53H0v24.48c0 15.44 13.49 27.08 31.38 27.08h1.292c17.887 0 31.383-11.64 31.383-27.08v-18.83c0-6.842-2.517-10.955-4.978-14.084-3.57-4.528-9.524-7.617-10.677-8.192-6.208-3-22.69-10.976-25.403-12.424-3.96-2.118-6.552-3.973-6.552-10.268V26.05c0-9.335 13.407-9.605 14.934-9.605h1.292c1.527 0 14.936.27 14.936 9.606v25.642h16.447v-25.64C64.055 10.71 51.148 0 32.67 0H31.38z"/><path clip-path="url(#b)" fill="#fff" d="M31.378 7.707c-11.783 0-23.67 5.67-23.67 18.344v17.16c0 12 7.265 15.885 11.167 17.97 3.428 1.834 25.42 12.443 25.644 12.546.046.02 5.19 2.604 7.695 5.783 1.914 2.427 3.1 4.72 3.1 8.668v18.828c0 12.043-11.39 18.342-22.644 18.342H31.38c-11.252 0-22.64-6.3-22.64-18.342v-25.51h-1.03v25.51c0 12.716 11.906 19.376 23.67 19.376h1.293c11.765 0 23.674-6.66 23.674-19.375V88.18c0-4.238-1.273-6.712-3.325-9.314-2.642-3.352-7.83-5.948-8.05-6.06-.227-.112-22.197-10.706-25.614-12.533-3.708-1.98-10.62-5.68-10.62-17.063V26.05C8.737 14.09 20.11 8.74 31.38 8.74h1.293c11.272 0 22.644 5.353 22.644 17.313v26.675h1.03V26.05c0-12.672-11.888-18.343-23.673-18.343H31.38zM31.248 3.684c-13.71 0-27.592 7.734-27.592 22.51V43.3c0 12.825 7.425 18.3 13.008 21.306L42.31 77.14c.054.028 4.42 2.037 6.48 4.655 1.498 1.903 2.497 3.862 2.497 7.222v17.277c0 10.372-9.403 15.018-18.714 15.018h-1.075c-9.015 0-18.716-4.563-18.716-14.59V81.684h-1.026v25.038c0 10.735 10.232 15.624 19.742 15.624h1.075c9.826 0 19.74-4.967 19.74-16.052V89.017c0-3.657-1.082-5.783-2.717-7.86-2.213-2.812-6.66-4.86-6.85-4.944l-25.614-12.52C11.798 60.82 4.682 55.576 4.682 43.3V26.195c0-14.762 13.77-21.487 26.565-21.487h1.512c12.795 0 26.566 6.62 26.566 21.156V52.24h1.028V25.864c0-15.24-14.304-22.18-27.595-22.18h-1.512zM31.174 11.682c-9.84 0-19.767 4.868-19.767 15.746l.058 14.832c0 10.283 6.063 13.615 9.324 15.41l25.293 12.393c.06.03 6.096 3.007 9.027 6.67 2.83 3.53 4.203 7.14 4.203 11.016v20.366c0 13.13-13.975 21.25-26.924 21.25h-1.515c-12.547 0-26.09-8.12-26.09-21.25V81.614H3.757v26.5c0 13.765 14.076 22.285 27.117 22.285h1.514c13.44 0 27.95-8.522 27.95-22.285V87.748c0-4.12-1.448-7.936-4.43-11.66-3.075-3.843-9.117-6.828-9.373-6.952l-25.275-12.38c-3.05-1.677-8.767-4.822-8.767-14.496l-.058-14.832c0-10.858 10.092-14.715 18.737-14.715h1.076c4.452 0 18.97 1.004 18.97 13.946L51.216 52.5h1.028l.007-25.843c0-11.045-10.334-14.978-20-14.978h-1.076zM79.653 93.362c-.396-1.047-1.147-1.722-2.27-1.722-1.567 0-2.17.814-2.17 1.935 0 2.665 5.997 2.172 5.997 6.695 0 2.53-2.172 4.346-5.23 4.346-1.09 0-2.25-.256-3.18-.853.237-.827.454-1.655.572-2.507h.374c.3 1.363 1.364 2.172 2.728 2.172 1.22 0 2.31-.688 2.31-2.05 0-3.158-5.887-2.016-5.887-6.774 0-2.27 1.56-4.146 4.562-4.146 1.42 0 2.683.537 3.118.95-.237.633-.435 1.277-.633 1.953h-.292zM86.92 91.885h1.22c1.024 0 1.833 1.047 1.833 2.62 0 1.207-.47 2.332-1.755 2.687-.415.097-.87.122-1.3.14v-5.447zm0 6.535c3.548 0 6.116-.755 6.116-4.272 0-2.228-1.48-3.334-4.225-3.334h-4.86v13.547c.495-.036.992-.097 1.485-.097.494 0 .985.06 1.484.098v-5.94zM102.553 91.64c2.96 0 4.142 2.922 4.142 5.478 0 3.275-1.36 6.312-4.4 6.312-2.962 0-4.126-2.72-4.126-5.288-.002-4.42 1.638-6.5 4.383-6.5m7.42 5.84c-.02-3.056-1.677-7.022-7.302-7.022-4.916 0-7.776 3.177-7.776 7.107 0 4.48 2.94 7.05 7.302 7.05 4.835 0 7.8-3.274 7.778-7.134"/><path clip-path="url(#b)" fill="#fff" d="M115.776 91.886c1.205 0 2.69-.16 3.005 1.477.078.414.098.713.098.985 0 2.04-1.025 3.024-3.102 2.824v-5.286zm-2.956 12.474c.492-.037.983-.097 1.477-.097.493 0 .99.06 1.48.097v-6.34h.142c.432.754.987 1.654 1.28 2.188l2.35 4.152c.59-.037 1.183-.097 1.775-.097.614 0 1.205.06 1.8.097l-.77-1.23c-1.184-1.83-2.41-3.65-3.497-5.545 1.835-.394 3.08-1.618 3.08-3.553 0-1.345-.593-2.235-1.718-2.824-.832-.432-2.27-.395-3.198-.395h-4.203v13.547zM131.118 104.36c-.494-.037-.987-.097-1.48-.097s-.994.06-1.48.097V92.212c-1.397 0-2.645.146-3.672.28.037-.28.098-.547.098-.852 0-.268-.06-.546-.098-.827h10.168c-.043.28-.103.56-.103.827 0 .305.06.57.104.853-1.163-.135-2.33-.28-3.535-.28v12.147zM143.435 93.362c-.39-1.047-1.145-1.722-2.264-1.722-1.564 0-2.18.814-2.18 1.935 0 2.665 6.008 2.172 6.008 6.695 0 2.53-2.17 4.346-5.232 4.346-1.09 0-2.254-.256-3.177-.853.236-.827.455-1.655.57-2.507h.372c.296 1.363 1.364 2.172 2.725 2.172 1.225 0 2.313-.688 2.313-2.05 0-3.158-5.885-2.016-5.885-6.774 0-2.27 1.565-4.146 4.558-4.146 1.426 0 2.69.537 3.117.95-.23.633-.426 1.277-.624 1.953h-.3zM160.178 93.362c-.396-1.047-1.146-1.722-2.27-1.722-1.56 0-2.17.814-2.17 1.935 0 2.665 6.005 2.172 6.005 6.695 0 2.53-2.182 4.346-5.235 4.346-1.082 0-2.252-.256-3.176-.853.23-.827.448-1.655.57-2.507h.372c.298 1.363 1.364 2.172 2.727 2.172 1.225 0 2.31-.688 2.31-2.05 0-3.158-5.882-2.016-5.882-6.774 0-2.27 1.557-4.146 4.56-4.146 1.418 0 2.685.537 3.12.95-.242.633-.436 1.277-.63 1.953h-.3zM167.656 98.65c-1.478-2.544-2.78-5.21-4.24-7.837.59.042 1.188.097 1.777.097.59 0 1.186-.055 1.776-.097.528 1.082 1.126 2.35 1.677 3.517.532 1.107 1.007 2.07 1.243 2.367.75-.93 2.208-4.204 2.964-5.884.317.042.633.06.962.06.316 0 .632-.018.95-.06-1.425 2.532-2.897 4.917-4.14 7.45v6.097c-.5-.037-.996-.097-1.484-.097-.495 0-.985.06-1.486.097v-5.71zM183.494 93.362c-.388-1.047-1.145-1.722-2.27-1.722-1.56 0-2.175.814-2.175 1.935 0 2.665 6 2.172 6 6.695 0 2.53-2.168 4.346-5.226 4.346-1.09 0-2.253-.256-3.185-.853.243-.827.455-1.655.57-2.507h.38c.297 1.363 1.36 2.172 2.725 2.172 1.225 0 2.313-.688 2.313-2.05 0-3.158-5.888-2.016-5.888-6.774 0-2.27 1.56-4.146 4.562-4.146 1.425 0 2.682.537 3.116.95-.23.633-.435 1.277-.628 1.953h-.296zM193.4 104.36c-.484-.037-.983-.097-1.477-.097-.492 0-.987.06-1.48.097V92.212c-1.4 0-2.647.146-3.676.28.043-.28.094-.547.094-.852 0-.268-.05-.546-.093-.827h10.174c-.046.28-.102.56-.102.827 0 .305.056.57.103.853-1.167-.135-2.333-.28-3.54-.28v12.147zM207.107 90.813c-.043.28-.1.572-.1.852s.057.57.1.852c-1.205-.158-2.55-.316-4.564-.28v4.25h2.057c.89 0 1.7-.087 2.422-.183-.033.278-.097.57-.097.852 0 .272.063.57.097.852-.723-.104-1.533-.183-2.422-.183h-2.057v5.014c2.014-.024 3.36-.12 4.564-.28-.043.28-.1.573-.1.852 0 .28.057.573.1.854h-7.524v-13.45h7.524zM222.067 90.813c.277.042.56.097.828.097.28 0 .57-.055.853-.097.615 5.313 1.07 9.615 1.736 13.547-.55-.037-1.088-.097-1.64-.097-.55 0-1.048.06-1.596.097-.157-3.14-.554-6.16-.85-9.203-1.498 3.02-2.984 6.038-4.385 9.106-.256-.043-.492-.062-.748 0-1.26-2.728-2.822-5.788-4.328-8.888-.447 3.47-.766 6.222-.827 8.984-.317-.038-.607-.098-.924-.098-.318 0-.598.06-.914.097.72-3.968 1.345-8.547 2.02-13.548.27.042.532.097.805.097.28 0 .56-.056.835-.098 1.415 3.103 2.975 6.183 4.538 9.28 1.42-2.804 3.1-5.895 4.597-9.28"/><path clip-path="url(#b)" fill="#fff" d="M234.533 93.362c-.405-1.047-1.153-1.722-2.276-1.722-1.56 0-2.17.814-2.17 1.935 0 2.665 6.003 2.172 6.003 6.695 0 2.53-2.173 4.346-5.233 4.346-1.083 0-2.25-.256-3.177-.853.232-.827.447-1.655.57-2.507h.376c.295 1.363 1.36 2.172 2.723 2.172 1.222 0 2.31-.688 2.31-2.05 0-3.158-5.883-2.016-5.883-6.774 0-2.27 1.558-4.146 4.558-4.146 1.424 0 2.683.537 3.123.95-.236.633-.44 1.277-.634 1.953h-.29zM163.684 79.57V51.927s2.573-15.11-19.574-15.11c-20.43 0-22.323 12.192-22.323 12.192l6.527 1.028s.854-9.613 15.452-9.613c14.592 0 14.252 9.27 14.252 10.988v3.264s-26.098 1.03-34.338 7.726c-8.247 6.698-6.356 21.803 10.47 23.008 16.832 1.205 23.696-6.183 23.696-6.183s.512 4.808 2.06 5.672h6.522s-2.744-2.24-2.744-5.326m-5.838-4.118s-5.665 7.035-19.573 6.524c-13.91-.513-16.034-11.723-9.783-17.172 6.694-5.837 29.356-7.04 29.356-7.04v17.688zM235.115 79.57V51.927s2.58-15.11-19.572-15.11c-20.438 0-22.324 12.192-22.324 12.192l6.522 1.028s.865-9.613 15.46-9.613 14.245 9.27 14.245 10.988v3.264s-26.1 1.03-34.343 7.726c-8.242 6.698-6.354 21.803 10.476 23.008 16.83 1.205 23.697-6.183 23.697-6.183s.52 4.808 2.063 5.672h6.525s-2.75-2.24-2.75-5.326m-5.838-4.118s-5.665 7.035-19.578 6.524c-13.907-.513-16.032-11.723-9.788-17.172 6.696-5.837 29.365-7.04 29.365-7.04v17.688zM177.936 43.414v-5.568h-6.006v47.05h6.006V49.433c2.575-3.61 8.856-10.92 14.425-5.75l.52-4.805s-6.577-6.248-14.944 4.537"/><path clip-path="url(#b)" fill="#fff" d="M116.794 60.854c0-13.386-7.54-24.24-23.938-24.24-16.4 0-24.285 10.854-24.285 24.24 0 13.392 7.887 24.243 24.286 24.243 16.397 0 20-6.725 23.78-11.36l-6.353-1.207c-4.465 7.56-10.862 8.912-17.513 8.912-9.826 0-17.83-8.85-18.15-19.898h42.19c.016-.4-.016-.285-.016-.69M74.75 57.94c.975-9.985 7.046-17.666 18.02-17.666 11.155 0 16.87 7.432 17.686 17.663l-35.707.002z"/></svg>