<?xml version="1.0" encoding="utf-8"?>
<!-- Generator: Adobe Illustrator 16.0.0, SVG Export Plug-In . SVG Version: 6.00 Build 0)  -->
<!DOCTYPE svg PUBLIC "-//W3C//DTD SVG 1.1//EN" "http://www.w3.org/Graphics/SVG/1.1/DTD/svg11.dtd">
<svg version="1.1" id="Layer_1" xmlns="http://www.w3.org/2000/svg" xmlns:xlink="http://www.w3.org/1999/xlink" x="0px" y="0px"
	 width="34.416px" height="34.682px" viewBox="0 0 34.416 34.682" enable-background="new 0 0 34.416 34.682" xml:space="preserve">
<path d="M33.399,28.985l-7.192-7.192c1.395-2.195,2.202-4.799,2.202-7.587C28.409,6.372,22.037,0,14.204,0C6.372,0,0,6.372,0,14.205
	c0,7.832,6.372,14.204,14.204,14.204c2.651,0,5.132-0.729,7.259-1.999l7.256,7.256C31.814,36.762,36.497,32.083,33.399,28.985
	 M4.404,14.205c0-5.404,4.396-9.801,9.8-9.801c5.403,0,9.802,4.397,9.802,9.801c0,5.404-4.398,9.8-9.802,9.8
	C8.8,24.005,4.404,19.609,4.404,14.205 M7.307,11.656c2.869-6.646,12.521-5.875,14.339,1.083
	C17.984,8.441,11.541,7.978,7.307,11.656"/>
<rect x="-30.019" fill="none" width="34.417" height="34.682"/>
</svg>
