<?xml version="1.0" encoding="utf-8"?>
<!-- Generator: Adobe Illustrator 16.0.0, SVG Export Plug-In . SVG Version: 6.00 Build 0)  -->
<!DOCTYPE svg PUBLIC "-//W3C//DTD SVG 1.1//EN" "http://www.w3.org/Graphics/SVG/1.1/DTD/svg11.dtd">
<svg version="1.1" id="Layer_1" xmlns="http://www.w3.org/2000/svg" xmlns:xlink="http://www.w3.org/1999/xlink" x="0px" y="0px"
	 width="330px" height="319.001px" viewBox="0 0 330 319.001" enable-background="new 0 0 330 319.001" xml:space="preserve">
<g>
	<defs>
		<rect id="SVGID_1_" y="0.001" width="330" height="319"/>
	</defs>
	<clipPath id="SVGID_2_">
		<use xlink:href="#SVGID_1_"  overflow="visible"/>
	</clipPath>
	<path clip-path="url(#SVGID_2_)" fill="#FFFFFF" d="M100.953,278.415c0,3.551-3.086,7.555-6.855,8.894L6.859,318.341
		C3.086,319.684,0,317.876,0,314.325V40.372c0-3.551,3.086-7.555,6.859-8.895L94.098,0.446c3.769-1.344,6.855,0.465,6.855,4.016
		V278.415z"/>
	<path clip-path="url(#SVGID_2_)" fill="#FFFFFF" d="M215.418,314.325c0,3.551-3.086,5.358-6.859,4.02l-87.239-31.036
		c-3.773-1.339-6.855-5.343-6.855-8.894V4.462c0-3.551,3.082-5.36,6.855-4.02l87.239,31.035c3.773,1.34,6.859,5.344,6.859,8.895
		V314.325z"/>
	<path clip-path="url(#SVGID_2_)" fill="#FFFFFF" d="M329.879,278.415c0,3.551-3.082,7.555-6.855,8.894l-87.238,31.032
		c-3.773,1.343-6.859-0.465-6.859-4.016V40.372c0-3.551,3.086-7.555,6.859-8.895l87.238-31.031c3.773-1.344,6.855,0.465,6.855,4.016
		V278.415z"/>
</g>
</svg>
