<?xml version="1.0" encoding="utf-8"?>
<!-- Generator: Adobe Illustrator 16.0.0, SVG Export Plug-In . SVG Version: 6.00 Build 0)  -->
<!DOCTYPE svg PUBLIC "-//W3C//DTD SVG 1.1//EN" "http://www.w3.org/Graphics/SVG/1.1/DTD/svg11.dtd">
<svg version="1.1" id="Layer_1" xmlns="http://www.w3.org/2000/svg" xmlns:xlink="http://www.w3.org/1999/xlink" x="0px" y="0px"
	 width="237.867px" height="134.089px" viewBox="0 0 237.867 134.089" enable-background="new 0 0 237.867 134.089"
	 xml:space="preserve">
<path fill="#AC162C" d="M32.648,0C14.286,0,1.463,10.646,1.463,25.891v17.053c0,16.517,11.003,22.4,15.149,24.617
	c3.458,1.846,23.102,11.327,25.676,12.575c1.53,0.762,4.13,2.45,5.049,3.619c1.068,1.355,1.441,2.002,1.441,3.881v18.713
	c0,7.756-8.88,10.572-14.844,10.572h-1.286c-5.967,0-14.842-2.816-14.842-10.572V82.02H1.463v24.329
	c0,15.347,13.406,26.916,31.186,26.916h1.286c17.777,0,31.189-11.569,31.189-26.916V87.636c0-6.8-2.5-10.888-4.947-13.997
	c-3.549-4.502-9.466-7.57-10.612-8.142c-6.17-2.982-22.549-10.908-25.248-12.348c-3.935-2.105-6.511-3.948-6.511-10.205V25.891
	c0-9.278,13.325-9.546,14.842-9.546h1.286c1.518,0,14.844,0.269,14.844,9.546v25.484h16.345V25.891C65.124,10.646,52.297,0,33.934,0
	H32.648z"/>
<path fill="#FFFFFF" d="M32.648,7.66c-11.71,0-23.525,5.636-23.525,18.231v17.053c0,11.926,7.221,15.788,11.099,17.86
	c3.407,1.823,25.264,12.367,25.486,12.47c0.047,0.02,5.16,2.588,7.648,5.747c1.902,2.414,3.081,4.692,3.081,8.615v18.713
	c0,11.969-11.319,18.23-22.503,18.23h-1.286c-11.182,0-22.501-6.262-22.501-18.23V82.02H9.123v24.329
	c0,12.636,11.834,19.256,23.525,19.256h1.286c11.691,0,23.527-6.62,23.527-19.256V87.636c0-4.211-1.265-6.669-3.304-9.257
	c-2.625-3.33-7.782-5.91-8-6.021c-0.227-0.11-22.062-10.64-25.457-12.457c-3.685-1.967-10.554-5.643-10.554-16.958V25.891
	c0-11.886,11.302-17.206,22.501-17.206h1.286c11.202,0,22.503,5.32,22.503,17.206v25.484h1.024V25.891
	c0-12.595-11.815-18.231-23.527-18.231H32.648z"/>
<path fill="#FFFFFF" d="M32.518,3.661c-13.625,0-27.422,7.686-27.422,22.373v17c0,12.746,7.379,18.188,12.929,21.175l25.488,12.457
	c0.054,0.027,4.394,2.024,6.439,4.626c1.49,1.892,2.482,3.839,2.482,7.177v17.172c0,10.309-9.345,14.927-18.599,14.927h-1.068
	c-8.96,0-18.601-4.537-18.601-14.501V82.02h-1.02v24.046c0,10.668,10.169,15.528,19.621,15.528h1.068
	c9.766,0,19.618-4.937,19.618-15.954V88.468c0-3.633-1.075-5.746-2.7-7.812c-2.199-2.793-6.618-4.831-6.807-4.914L18.491,63.301
	c-5.302-2.856-12.374-8.066-12.374-20.268v-17c0-14.671,13.686-21.355,26.401-21.355h1.503c12.717,0,26.403,6.58,26.403,21.026
	v25.67h1.021v-25.67c0-15.147-14.216-22.043-27.425-22.043H32.518z"/>
<path fill="#FFFFFF" d="M32.446,11.61c-9.778,0-19.646,4.837-19.646,15.649L12.857,42c0,10.22,6.026,13.531,9.267,15.314
	l25.138,12.317c0.06,0.029,6.058,2.988,8.973,6.629c2.813,3.51,4.177,7.097,4.177,10.948v20.241
	c0,13.049-13.889,21.121-26.758,21.121h-1.505c-12.47,0-25.931-8.072-25.931-21.121V82.02h-1.02v25.43
	c0,13.68,13.989,22.147,26.951,22.147h1.505c13.359,0,27.78-8.468,27.78-22.147V87.208c0-4.094-1.44-7.887-4.403-11.588
	c-3.057-3.82-9.062-6.786-9.316-6.909L22.595,56.406c-3.031-1.665-8.713-4.791-8.713-14.405l-0.058-14.741
	c0-10.791,10.03-14.624,18.622-14.624h1.068c4.426,0,18.855,0.997,18.855,13.859l-0.006,24.88h1.021l0.007-24.88
	c0-10.976-10.27-14.884-19.877-14.884H32.446z"/>
<path fill="#FFFFFF" d="M80.626,92.789c-0.394-1.04-1.14-1.712-2.257-1.712c-1.556,0-2.155,0.811-2.155,1.924
	c0,2.647,5.96,2.159,5.96,6.653c0,2.516-2.159,4.319-5.199,4.319c-1.081,0-2.235-0.255-3.16-0.848
	c0.236-0.821,0.451-1.645,0.569-2.491h0.372c0.3,1.355,1.356,2.158,2.71,2.158c1.214,0,2.297-0.683,2.297-2.039
	c0-3.138-5.851-2.001-5.851-6.731c0-2.256,1.552-4.119,4.534-4.119c1.413,0,2.668,0.533,3.1,0.943
	c-0.235,0.631-0.432,1.271-0.629,1.942H80.626z"/>
<path fill="#FFFFFF" d="M87.848,91.32h1.214c1.018,0,1.821,1.04,1.821,2.606c0,1.197-0.466,2.315-1.744,2.668
	c-0.413,0.096-0.864,0.121-1.291,0.139V91.32z M87.848,97.816c3.527,0,6.08-0.751,6.08-4.247c0-2.214-1.471-3.314-4.199-3.314
	h-4.831v13.464c0.491-0.036,0.985-0.096,1.475-0.096c0.492,0,0.979,0.06,1.475,0.096V97.816z"/>
<path fill="#FFFFFF" d="M103.385,91.077c2.941,0,4.117,2.904,4.117,5.443c0,3.256-1.351,6.272-4.374,6.272
	c-2.944,0-4.101-2.703-4.101-5.255C99.028,93.146,100.657,91.077,103.385,91.077 M110.76,96.884
	c-0.022-3.038-1.667-6.981-7.258-6.981c-4.887,0-7.729,3.157-7.729,7.065c0,4.451,2.922,7.005,7.257,7.005
	C107.836,103.973,110.782,100.719,110.76,96.884"/>
<path fill="#FFFFFF" d="M116.527,91.32c1.198,0,2.672-0.158,2.988,1.469c0.076,0.411,0.095,0.709,0.095,0.979
	c0,2.025-1.019,3.006-3.083,2.808V91.32z M113.589,103.718c0.489-0.036,0.976-0.095,1.468-0.095c0.49,0,0.984,0.059,1.47,0.095
	v-6.302h0.142c0.43,0.749,0.982,1.645,1.274,2.176l2.334,4.126c0.588-0.036,1.178-0.095,1.767-0.095
	c0.609,0,1.197,0.059,1.787,0.095l-0.765-1.221c-1.176-1.821-2.395-3.63-3.475-5.512c1.824-0.392,3.062-1.608,3.062-3.531
	c0-1.338-0.59-2.222-1.708-2.808c-0.827-0.429-2.258-0.393-3.179-0.393h-4.177V103.718z"/>
<path fill="#FFFFFF" d="M131.775,103.718c-0.492-0.036-0.981-0.095-1.471-0.095s-0.988,0.059-1.472,0.095V91.646
	c-1.39,0-2.628,0.144-3.647,0.278c0.035-0.278,0.095-0.545,0.095-0.848c0-0.265-0.06-0.543-0.095-0.822h10.105
	c-0.045,0.279-0.104,0.558-0.104,0.822c0,0.303,0.059,0.569,0.104,0.848c-1.158-0.135-2.318-0.278-3.516-0.278V103.718z"/>
<path fill="#FFFFFF" d="M144.015,92.789c-0.385-1.04-1.137-1.712-2.249-1.712c-1.557,0-2.167,0.811-2.167,1.924
	c0,2.647,5.971,2.159,5.971,6.653c0,2.516-2.157,4.319-5.201,4.319c-1.082,0-2.239-0.255-3.156-0.848
	c0.236-0.821,0.453-1.645,0.567-2.491h0.37c0.295,1.355,1.355,2.158,2.709,2.158c1.216,0,2.297-0.683,2.297-2.039
	c0-3.138-5.85-2.001-5.85-6.731c0-2.256,1.558-4.119,4.53-4.119c1.418,0,2.676,0.533,3.099,0.943
	c-0.229,0.631-0.423,1.271-0.621,1.942H144.015z"/>
<path fill="#FFFFFF" d="M160.656,92.789c-0.394-1.04-1.138-1.712-2.256-1.712c-1.549,0-2.156,0.811-2.156,1.924
	c0,2.647,5.969,2.159,5.969,6.653c0,2.516-2.168,4.319-5.205,4.319c-1.074,0-2.237-0.255-3.154-0.848
	c0.229-0.821,0.445-1.645,0.566-2.491h0.37c0.296,1.355,1.356,2.158,2.708,2.158c1.217,0,2.294-0.683,2.294-2.039
	c0-3.138-5.844-2.001-5.844-6.731c0-2.256,1.547-4.119,4.532-4.119c1.408,0,2.668,0.533,3.102,0.943
	c-0.241,0.631-0.434,1.271-0.626,1.942H160.656z"/>
<path fill="#FFFFFF" d="M168.089,98.045c-1.47-2.529-2.766-5.178-4.214-7.791c0.586,0.043,1.18,0.097,1.766,0.097
	s1.178-0.054,1.766-0.097c0.525,1.076,1.12,2.336,1.668,3.495c0.527,1.103,1,2.057,1.234,2.354c0.744-0.925,2.194-4.179,2.946-5.849
	c0.315,0.043,0.63,0.06,0.956,0.06c0.314,0,0.628-0.017,0.942-0.06c-1.415,2.517-2.877,4.888-4.113,7.405v6.059
	c-0.495-0.036-0.989-0.096-1.475-0.096c-0.491,0-0.979,0.06-1.477,0.096V98.045z"/>
<path fill="#FFFFFF" d="M183.829,92.789c-0.385-1.04-1.136-1.712-2.255-1.712c-1.55,0-2.16,0.811-2.16,1.924
	c0,2.647,5.964,2.159,5.964,6.653c0,2.516-2.155,4.319-5.194,4.319c-1.083,0-2.24-0.255-3.166-0.848
	c0.243-0.821,0.454-1.645,0.569-2.491h0.377c0.296,1.355,1.353,2.158,2.709,2.158c1.217,0,2.297-0.683,2.297-2.039
	c0-3.138-5.852-2.001-5.852-6.731c0-2.256,1.552-4.119,4.533-4.119c1.417,0,2.665,0.533,3.098,0.943
	c-0.229,0.631-0.433,1.271-0.624,1.942H183.829z"/>
<path fill="#FFFFFF" d="M193.676,103.718c-0.484-0.036-0.979-0.095-1.47-0.095c-0.488,0-0.98,0.059-1.47,0.095V91.646
	c-1.393,0-2.632,0.144-3.653,0.278c0.042-0.278,0.093-0.545,0.093-0.848c0-0.265-0.051-0.543-0.093-0.822h10.11
	c-0.046,0.279-0.103,0.558-0.103,0.822c0,0.303,0.057,0.569,0.103,0.848c-1.159-0.135-2.319-0.278-3.518-0.278V103.718z"/>
<path fill="#FFFFFF" d="M207.297,90.254c-0.043,0.279-0.098,0.569-0.098,0.848c0,0.277,0.055,0.567,0.098,0.846
	c-1.197-0.158-2.535-0.313-4.537-0.278v4.223h2.046c0.881,0,1.688-0.086,2.405-0.181c-0.033,0.277-0.095,0.568-0.095,0.847
	c0,0.27,0.062,0.567,0.095,0.846c-0.718-0.103-1.524-0.181-2.405-0.181h-2.046v4.982c2.002-0.023,3.34-0.12,4.537-0.277
	c-0.043,0.277-0.098,0.569-0.098,0.847c0,0.278,0.055,0.568,0.098,0.848h-7.478V90.254H207.297z"/>
<path fill="#FFFFFF" d="M222.166,90.254c0.276,0.042,0.556,0.097,0.823,0.097c0.276,0,0.565-0.055,0.847-0.097
	c0.611,5.28,1.064,9.556,1.727,13.464c-0.547-0.036-1.082-0.096-1.631-0.096c-0.544,0-1.041,0.06-1.586,0.096
	c-0.157-3.12-0.55-6.121-0.845-9.146c-1.487,3.001-2.965,6.002-4.356,9.051c-0.254-0.043-0.488-0.061-0.744,0
	c-1.251-2.711-2.805-5.753-4.301-8.833c-0.445,3.449-0.762,6.183-0.821,8.929c-0.315-0.036-0.604-0.096-0.918-0.096
	c-0.317,0-0.596,0.06-0.909,0.096c0.713-3.942,1.335-8.493,2.007-13.464c0.267,0.042,0.528,0.097,0.799,0.097
	c0.278,0,0.557-0.055,0.829-0.097c1.407,3.085,2.958,6.146,4.511,9.224C219.007,96.69,220.677,93.618,222.166,90.254"/>
<path fill="#FFFFFF" d="M234.554,92.789c-0.402-1.04-1.146-1.712-2.263-1.712c-1.549,0-2.154,0.811-2.154,1.924
	c0,2.647,5.965,2.159,5.965,6.653c0,2.516-2.16,4.319-5.202,4.319c-1.077,0-2.237-0.255-3.157-0.848
	c0.23-0.821,0.445-1.645,0.566-2.491h0.374c0.293,1.355,1.352,2.158,2.707,2.158c1.214,0,2.295-0.683,2.295-2.039
	c0-3.138-5.846-2.001-5.846-6.731c0-2.256,1.548-4.119,4.53-4.119c1.414,0,2.666,0.533,3.104,0.943
	c-0.235,0.631-0.438,1.271-0.63,1.942H234.554z"/>
<path fill="#FFFFFF" d="M164.14,79.082V51.607c0,0,2.557-15.016-19.453-15.016c-20.305,0-22.187,12.115-22.187,12.115l6.486,1.022
	c0,0,0.852-9.554,15.358-9.554c14.503,0,14.164,9.212,14.164,10.921v3.242c0,0-25.937,1.025-34.127,7.678
	c-8.196,6.657-6.317,21.67,10.404,22.866c16.729,1.198,23.552-6.145,23.552-6.145s0.51,4.779,2.046,5.637h6.484
	C166.869,84.375,164.14,82.15,164.14,79.082 M158.338,74.988c0,0-5.63,6.992-19.454,6.484c-13.823-0.509-15.934-11.65-9.722-17.067
	c6.652-5.801,29.176-6.995,29.176-6.995V74.988z"/>
<path fill="#FFFFFF" d="M235.132,79.082V51.607c0,0,2.564-15.016-19.45-15.016c-20.313,0-22.188,12.115-22.188,12.115l6.484,1.022
	c0,0,0.858-9.554,15.365-9.554c14.503,0,14.156,9.212,14.156,10.921v3.242c0,0-25.938,1.025-34.131,7.678
	c-8.192,6.657-6.314,21.67,10.41,22.866c16.727,1.198,23.553-6.145,23.553-6.145s0.515,4.779,2.051,5.637h6.484
	C237.867,84.375,235.132,82.15,235.132,79.082 M229.332,74.988c0,0-5.632,6.992-19.458,6.484
	c-13.821-0.509-15.934-11.65-9.727-17.067c6.654-5.801,29.185-6.995,29.185-6.995V74.988z"/>
<path fill="#FFFFFF" d="M178.305,43.147v-5.534h-5.969v46.761h5.969V49.128c2.559-3.586,8.802-10.853,14.335-5.714l0.516-4.775
	C193.156,38.638,186.622,32.429,178.305,43.147"/>
<path fill="#FFFFFF" d="M117.539,60.48c0-13.304-7.495-24.093-23.791-24.093c-16.298,0-24.135,10.789-24.135,24.093
	c0,13.31,7.837,24.093,24.135,24.093c16.296,0,19.877-6.684,23.632-11.291l-6.313-1.199c-4.438,7.513-10.795,8.856-17.405,8.856
	c-9.766,0-17.723-8.793-18.039-19.775h41.93C117.571,60.768,117.539,60.882,117.539,60.48 M75.752,57.583
	c0.97-9.923,7.003-17.557,17.911-17.557c11.085,0,16.766,7.387,17.577,17.555L75.752,57.583z"/>
</svg>
