<?xml version="1.0" encoding="UTF-8" standalone="no"?>
<svg
   xmlns:dc="http://purl.org/dc/elements/1.1/"
   xmlns:cc="http://creativecommons.org/ns#"
   xmlns:rdf="http://www.w3.org/1999/02/22-rdf-syntax-ns#"
   xmlns:svg="http://www.w3.org/2000/svg"
   xmlns="http://www.w3.org/2000/svg"
   xmlns:sodipodi="http://sodipodi.sourceforge.net/DTD/sodipodi-0.dtd"
   xmlns:inkscape="http://www.inkscape.org/namespaces/inkscape"
   height="22px"
   version="1.1"
   viewBox="0 0 22 22"
   width="22px"
   id="svg2"
   inkscape:version="0.48.4 r9939"
   sodipodi:docname="1431087135_editor_pencil_pen_edit_write_.svg">
  <metadata
     id="metadata12">
    <rdf:RDF>
      <cc:Work
         rdf:about="">
        <dc:format>image/svg+xml</dc:format>
        <dc:type
           rdf:resource="http://purl.org/dc/dcmitype/StillImage" />
      </cc:Work>
    </rdf:RDF>
  </metadata>
  <sodipodi:namedview
     pagecolor="#ffffff"
     bordercolor="#666666"
     borderopacity="1"
     objecttolerance="10"
     gridtolerance="10"
     guidetolerance="10"
     inkscape:pageopacity="0"
     inkscape:pageshadow="2"
     inkscape:window-width="640"
     inkscape:window-height="793"
     id="namedview10"
     showgrid="false"
     inkscape:zoom="7.5853273"
     inkscape:cx="-6.9676278"
     inkscape:cy="28.47083"
     inkscape:window-x="381"
     inkscape:window-y="63"
     inkscape:window-maximized="0"
     inkscape:current-layer="svg2" />
  <title
     id="title4" />
  <defs
     id="defs6" />
  <g
     fill="none"
     fill-rule="evenodd"
     id="miu"
     stroke="none"
     stroke-width="1">
    <path
       d="M6.52081529,19.553286 L13.5208152,19.553286 L13.5208151,3.55328599 L6.52081521,3.55328599 L6.52081529,19.553286 Z M6.52081528,-0.476770888 L6.52081528,2.47686997 L13.5197166,2.47686992 L13.5197166,-0.476770935 C13.5197166,-1.47918477 12.5173028,-1.47918477 12.5173028,-1.47918477 L7.52322913,-1.47918472 C7.52322913,-1.47918472 6.52081528,-1.47918472 6.52081528,-0.476770888 Z M6.50416988,20.5208153 L10.0208153,25.5075707 L13.5192284,20.5208153 L6.50416988,20.5208153 Z"
       fill="#000000"
       id="editor_pencil_pen_edit_write_glyph"
       transform="translate(10.020815, 12.020815) rotate(45.000000) translate(-10.020815, -12.020815) " />
  </g>
  <path
     style="fill:#ffffff"
     d="m 0.58734972,21.221302 c 0.028233,-0.141165 0.24803778,-1.410127 0.48845498,-2.819915 0.2404173,-1.409788 0.4649715,-2.593819 0.4990095,-2.631178 0.034038,-0.03736 1.1282088,0.99901 2.4314908,2.303044 1.542831,1.543721 2.3225053,2.386204 2.2346155,2.414631 -0.1438243,0.04652 -5.51252705,0.990082 -5.63338191,0.990082 -0.0393369,0 -0.0484219,-0.115499 -0.0201889,-0.256664 z"
     id="path2989"
     inkscape:connector-curvature="0" />
  <path
     style="fill:#ffffff"
     d="M 4.7073393,17.282763 2.2846675,14.858746 7.9007457,9.2426681 13.516824,3.6265898 l 2.44684,2.4468399 2.446839,2.4468399 -5.592672,5.5932554 c -3.0759695,3.07629 -5.6140803,5.593255 -5.6402459,5.593255 -0.026166,0 -1.1377761,-1.090808 -2.4702458,-2.424017 l 0,0 z"
     id="path2991"
     inkscape:connector-curvature="0" />
  <path
     style="fill:#ffffff"
     d="M 16.82694,5.1798646 14.455311,2.8034787 15.6557,1.620361 c 0.660214,-0.65071464 1.308604,-1.18311758 1.440866,-1.18311758 0.134028,0 1.163706,0.91673798 2.326155,2.07101318 2.580658,2.5625103 2.545223,2.4214076 0.9953,3.9632786 -0.599708,0.5965935 -1.119421,1.0847155 -1.154916,1.0847155 -0.0355,0 -1.131769,-1.0693738 -2.436165,-2.3763861 z"
     id="path3001"
     inkscape:connector-curvature="0" />
</svg>
