<?xml version="1.0" encoding="utf-8"?>
<!-- Generator: Adobe Illustrator 16.0.0, SVG Export Plug-In . SVG Version: 6.00 Build 0)  -->
<!DOCTYPE svg PUBLIC "-//W3C//DTD SVG 1.1//EN" "http://www.w3.org/Graphics/SVG/1.1/DTD/svg11.dtd">
<svg version="1.1" id="Layer_1" xmlns="http://www.w3.org/2000/svg" xmlns:xlink="http://www.w3.org/1999/xlink" x="0px" y="0px"
	 width="340.359px" height="341.74px" viewBox="0 0 340.359 341.74" enable-background="new 0 0 340.359 341.74"
	 xml:space="preserve">
<linearGradient id="SVGID_1_" gradientUnits="userSpaceOnUse" x1="170.4297" y1="0.25" x2="170.4297" y2="341.4907">
	<stop  offset="0" style="stop-color:#EAEAEA"/>
	<stop  offset="1" style="stop-color:#989696"/>
</linearGradient>
<path fill="url(#SVGID_1_)" d="M136.032,34.654c0-22.015,9.633-34.404,34.398-34.404s34.397,12.389,34.397,34.404v102.509h101.135
	c17.886,0,34.397,9.627,34.397,34.397c0,24.765-16.512,34.398-34.397,34.398H204.827v101.134c0,22.017-9.633,34.398-34.397,34.398
	s-34.398-12.382-34.398-34.398V205.958H34.898c-17.886,0-34.398-9.633-34.398-34.398c0-24.77,16.512-34.397,34.398-34.397h101.134
	V34.654z"/>
</svg>
