<?xml version="1.0" encoding="utf-8"?>
<!-- Generator: Adobe Illustrator 16.0.0, SVG Export Plug-In . SVG Version: 6.00 Build 0)  -->
<!DOCTYPE svg PUBLIC "-//W3C//DTD SVG 1.1//EN" "http://www.w3.org/Graphics/SVG/1.1/DTD/svg11.dtd">
<svg version="1.1" id="Layer_1" xmlns="http://www.w3.org/2000/svg" xmlns:xlink="http://www.w3.org/1999/xlink" x="0px" y="0px"
	 width="34.416px" height="34.682px" viewBox="0 0 34.416 34.682" enable-background="new 0 0 34.416 34.682" xml:space="preserve">
<g>
	<defs>
		<rect id="SVGID_1_" width="34.416" height="34.682"/>
	</defs>
	<clipPath id="SVGID_2_">
		<use xlink:href="#SVGID_1_"  overflow="visible"/>
	</clipPath>
	<path clip-path="url(#SVGID_2_)" fill="#FFFFFF" d="M33.399,28.985l-7.192-7.192c1.395-2.195,2.202-4.799,2.202-7.587
		C28.409,6.372,22.037,0,14.205,0C6.373,0,0,6.372,0,14.205c0,7.832,6.372,14.204,14.204,14.204c2.651,0,5.132-0.729,7.259-1.999
		l7.255,7.256C31.814,36.762,36.497,32.083,33.399,28.985 M4.404,14.205c0-5.404,4.396-9.801,9.8-9.801
		c5.404,0,9.801,4.397,9.801,9.801c0,5.404-4.397,9.8-9.801,9.8C8.8,24.005,4.404,19.609,4.404,14.205 M7.308,11.656
		c2.869-6.646,12.521-5.875,14.34,1.083C17.985,8.441,11.542,7.978,7.308,11.656"/>
</g>
</svg>
