<?xml version="1.0" encoding="utf-8"?>
<!-- Generator: Adobe Illustrator 16.0.0, SVG Export Plug-In . SVG Version: 6.00 Build 0)  -->
<!DOCTYPE svg PUBLIC "-//W3C//DTD SVG 1.1//EN" "http://www.w3.org/Graphics/SVG/1.1/DTD/svg11.dtd">
<svg version="1.1" id="Layer_1" xmlns="http://www.w3.org/2000/svg" xmlns:xlink="http://www.w3.org/1999/xlink" x="0px" y="0px"
	 width="59.333px" height="59.333px" viewBox="0 0 59.333 59.333" enable-background="new 0 0 59.333 59.333" xml:space="preserve">
<path fill="#4DC64A" d="M0,0V1.35c2.489,0.632,4.333,2.882,4.333,5.567c0,2.686-1.844,4.935-4.333,5.567v3.533
	c2.489,0.632,4.333,2.881,4.333,5.567S2.489,26.519,0,27.15v3.533c2.489,0.632,4.333,2.881,4.333,5.567
	c0,2.685-1.844,4.935-4.333,5.567v3.531c2.489,0.633,4.333,2.883,4.333,5.567c0,2.686-1.844,4.935-4.333,5.567v2.85h59.333V0H0z
	 M11.75,57.167c-3.176,0-5.75-2.574-5.75-5.75c0-3.175,2.574-5.75,5.75-5.75c3.176,0,5.75,2.575,5.75,5.75
	C17.5,54.592,14.926,57.167,11.75,57.167 M11.75,42.5C8.574,42.5,6,39.925,6,36.75C6,33.575,8.574,31,11.75,31
	c3.176,0,5.75,2.574,5.75,5.75C17.5,39.925,14.926,42.5,11.75,42.5 M11.75,27.833c-3.176,0-5.75-2.574-5.75-5.75
	s2.574-5.75,5.75-5.75c3.176,0,5.75,2.574,5.75,5.75S14.926,27.833,11.75,27.833 M11.75,13.167c-3.176,0-5.75-2.574-5.75-5.75
	c0-3.175,2.574-5.75,5.75-5.75c3.176,0,5.75,2.575,5.75,5.75C17.5,10.592,14.926,13.167,11.75,13.167 M26.25,57.167
	c-3.176,0-5.75-2.574-5.75-5.75c0-3.175,2.574-5.75,5.75-5.75c3.176,0,5.75,2.575,5.75,5.75C32,54.592,29.426,57.167,26.25,57.167
	 M26.25,42.5c-3.176,0-5.75-2.575-5.75-5.75c0-3.176,2.574-5.75,5.75-5.75c3.176,0,5.75,2.574,5.75,5.75
	C32,39.925,29.426,42.5,26.25,42.5 M26.25,27.833c-3.176,0-5.75-2.574-5.75-5.75s2.574-5.75,5.75-5.75c3.176,0,5.75,2.574,5.75,5.75
	S29.426,27.833,26.25,27.833 M26.25,13.167c-3.176,0-5.75-2.574-5.75-5.75c0-3.175,2.574-5.75,5.75-5.75
	c3.176,0,5.75,2.575,5.75,5.75C32,10.592,29.426,13.167,26.25,13.167 M46.857,36.583v-3.199h-9.449v-8.618h9.449v-3.199l7.521,7.508
	L46.857,36.583z"/>
<rect y="0" fill="none" width="59.333" height="59.333"/>
</svg>
