<?xml version="1.0" encoding="utf-8"?>
<!-- Generator: Adobe Illustrator 16.0.0, SVG Export Plug-In . SVG Version: 6.00 Build 0)  -->
<!DOCTYPE svg PUBLIC "-//W3C//DTD SVG 1.1//EN" "http://www.w3.org/Graphics/SVG/1.1/DTD/svg11.dtd">
<svg version="1.1" id="Layer_1" xmlns="http://www.w3.org/2000/svg" xmlns:xlink="http://www.w3.org/1999/xlink" x="0px" y="0px"
	 width="50.75px" height="30.5px" viewBox="0 0 50.75 30.5" enable-background="new 0 0 50.75 30.5" xml:space="preserve">
<linearGradient id="SVGID_1_" gradientUnits="userSpaceOnUse" x1="13.9395" y1="0.5112" x2="13.9395" y2="29.2798" gradientTransform="matrix(1 0 0 -1 0.0449 30.2598)">
	<stop  offset="0" style="stop-color:#188320"/>
	<stop  offset="1" style="stop-color:#1EBA34"/>
</linearGradient>
<path fill="url(#SVGID_1_)" stroke="#FFFFFF" stroke-miterlimit="10" d="M25.615,13.603l-7.443-4.342
	c-1.661-0.968-4.379-2.554-6.039-3.521L4.416,1.399C2.757,0.426,1.125,1.21,1.125,3.128v8.739v6.99v8.738
	c0,1.926,1.632,2.707,3.291,1.735l7.58-4.341c1.662-0.967,4.446-2.553,6.107-3.521l7.479-4.342
	C27.242,16.157,27.275,14.574,25.615,13.603"/>
<linearGradient id="SVGID_2_" gradientUnits="userSpaceOnUse" x1="25.5024" y1="0.5112" x2="25.5024" y2="29.2798" gradientTransform="matrix(1 0 0 -1 0.0449 30.2598)">
	<stop  offset="0" style="stop-color:#188320"/>
	<stop  offset="1" style="stop-color:#1EBA34"/>
</linearGradient>
<path fill="url(#SVGID_2_)" stroke="#FFFFFF" stroke-miterlimit="10" d="M37.178,13.603l-7.443-4.342
	c-1.66-0.968-4.378-2.554-6.039-3.521l-7.717-4.341c-1.659-0.973-3.291-0.189-3.291,1.729v8.739v6.99v8.738
	c0,1.926,1.632,2.707,3.291,1.735l7.58-4.341c1.661-0.967,4.445-2.553,6.106-3.521l7.479-4.342
	C38.805,16.157,38.838,14.574,37.178,13.603"/>
<linearGradient id="SVGID_3_" gradientUnits="userSpaceOnUse" x1="37.0645" y1="0.5112" x2="37.0645" y2="29.2798" gradientTransform="matrix(1 0 0 -1 0.0449 30.2598)">
	<stop  offset="0" style="stop-color:#188320"/>
	<stop  offset="1" style="stop-color:#1EBA34"/>
</linearGradient>
<path fill="url(#SVGID_3_)" stroke="#FFFFFF" stroke-miterlimit="10" d="M48.74,13.603l-7.443-4.342
	c-1.66-0.968-4.379-2.554-6.039-3.521l-7.717-4.341C25.882,0.426,24.25,1.21,24.25,3.128v8.739v6.99v8.738
	c0,1.926,1.632,2.707,3.291,1.735l7.58-4.341c1.661-0.967,4.445-2.553,6.105-3.521l7.479-4.342
	C50.367,16.157,50.4,14.574,48.74,13.603"/>
</svg>
