<?xml version="1.0" encoding="utf-8"?>
<!-- Generator: Adobe Illustrator 16.0.0, SVG Export Plug-In . SVG Version: 6.00 Build 0)  -->
<!DOCTYPE svg PUBLIC "-//W3C//DTD SVG 1.1//EN" "http://www.w3.org/Graphics/SVG/1.1/DTD/svg11.dtd">
<svg version="1.1" id="Layer_1" xmlns="http://www.w3.org/2000/svg" xmlns:xlink="http://www.w3.org/1999/xlink" x="0px" y="0px"
	 width="50.75px" height="30.5px" viewBox="0 0 50.75 30.5" enable-background="new 0 0 50.75 30.5" xml:space="preserve">
<linearGradient id="SVGID_1_" gradientUnits="userSpaceOnUse" x1="21.4844" y1="29.75" x2="21.4844" y2="0.981">
	<stop  offset="0" style="stop-color:#B85F00"/>
	<stop  offset="1" style="stop-color:#ED9D36"/>
</linearGradient>
<path fill="url(#SVGID_1_)" stroke="#FFFFFF" stroke-miterlimit="10" d="M33.115,13.603l-7.443-4.342
	c-1.661-0.968-4.379-2.554-6.039-3.521l-7.717-4.341C10.257,0.426,8.625,1.21,8.625,3.128v8.739v6.991v8.738
	c0,1.925,1.632,2.707,3.291,1.735l7.58-4.341c1.661-0.967,4.445-2.553,6.106-3.521l7.479-4.342
	C34.742,16.157,34.775,14.574,33.115,13.603"/>
<linearGradient id="SVGID_2_" gradientUnits="userSpaceOnUse" x1="33.0469" y1="29.75" x2="33.0469" y2="0.981">
	<stop  offset="0" style="stop-color:#B85F00"/>
	<stop  offset="1" style="stop-color:#ED9D36"/>
</linearGradient>
<path fill="url(#SVGID_2_)" stroke="#FFFFFF" stroke-miterlimit="10" d="M44.678,13.603l-7.443-4.342
	c-1.661-0.968-4.379-2.554-6.039-3.521l-7.717-4.341c-1.659-0.973-3.291-0.189-3.291,1.729v8.739v6.991v8.738
	c0,1.925,1.632,2.707,3.291,1.735l7.58-4.341c1.661-0.967,4.445-2.553,6.106-3.521l7.479-4.342
	C46.305,16.157,46.338,14.574,44.678,13.603"/>
</svg>
