<?xml version="1.0" encoding="utf-8"?>
<!-- Generator: Adobe Illustrator 16.0.0, SVG Export Plug-In . SVG Version: 6.00 Build 0)  -->
<!DOCTYPE svg PUBLIC "-//W3C//DTD SVG 1.1//EN" "http://www.w3.org/Graphics/SVG/1.1/DTD/svg11.dtd">
<svg version="1.1" id="Layer_1" xmlns="http://www.w3.org/2000/svg" xmlns:xlink="http://www.w3.org/1999/xlink" x="0px" y="0px"
	 width="171px" height="358.2px" viewBox="0 0 171 358.2" enable-background="new 0 0 171 358.2" xml:space="preserve">
<g>
	<path fill="#990020" d="M83.4,1.2C34.3,1.2,0,29.7,0,70.5v45.6C0,160.3,29.4,176,40.5,182c9.3,4.9,61.8,30.3,68.7,33.6
		c4.1,2,11,6.6,13.5,9.7c2.9,3.6,3.9,5.4,3.9,10.4v50.1c0,20.7-23.8,28.3-39.7,28.3h-3.4c-16,0-39.7-7.5-39.7-28.3v-65.1H0v65.1
		c0,41.1,35.9,72,83.4,72h3.4c47.6,0,83.4-30.9,83.4-72v-50.1c0-18.2-6.7-29.1-13.2-37.4c-9.5-12-25.3-20.3-28.4-21.8
		c-16.5-8-60.3-29.2-67.5-33c-10.5-5.6-17.4-10.6-17.4-27.3V70.5c0-24.8,35.6-25.5,39.7-25.5h3.4c4.1,0,39.7,0.7,39.7,25.5v68.2
		h43.7V70.5c0-40.8-34.3-69.3-83.4-69.3H83.4z"/>
	<path fill="#FFFFFF" d="M83.4,21.7c-31.3,0-62.9,15.1-62.9,48.8v45.6c0,31.9,19.3,42.2,29.7,47.8c9.1,4.9,67.6,33.1,68.2,33.4
		c0.1,0.1,13.8,6.9,20.5,15.4c5.1,6.5,8.2,12.6,8.2,23v50.1c0,32-30.3,48.8-60.2,48.8h-3.4c-29.9,0-60.2-16.8-60.2-48.8v-65.1h-2.7
		v65.1c0,33.8,31.7,51.5,62.9,51.5h3.4c31.3,0,62.9-17.7,62.9-51.5v-50.1c0-11.3-3.4-17.8-8.8-24.8c-7-8.9-20.8-15.8-21.4-16.1
		c-0.6-0.3-59-28.5-68.1-33.3c-9.9-5.3-28.2-15.1-28.2-45.4V70.5c0-31.8,30.2-46,60.2-46h3.4c30,0,60.2,14.2,60.2,46v68.2h2.7V70.5
		c0-33.7-31.6-48.8-62.9-48.8H83.4z"/>
	<path fill="#FFFFFF" d="M83.1,11C46.6,11,9.7,31.6,9.7,70.9v45.5c0,34.1,19.7,48.7,34.6,56.6l68.2,33.3c0.1,0.1,11.8,5.4,17.2,12.4
		c4,5.1,6.6,10.3,6.6,19.2v45.9c0,27.6-25,39.9-49.8,39.9h-2.9c-24,0-49.8-12.1-49.8-38.8v-64.3h-2.7V285
		c0,28.5,27.2,41.5,52.5,41.5h2.9c26.1,0,52.5-13.2,52.5-42.7v-45.9c0-9.7-2.9-15.4-7.2-20.9c-5.9-7.5-17.7-12.9-18.2-13.1
		l-68.1-33.3c-14.2-7.6-33.1-21.6-33.1-54.2V70.9c0-39.2,36.6-57.1,70.6-57.1h4c34,0,70.6,17.6,70.6,56.2v68.7h2.7V70
		c0-40.5-38-59-73.4-59H83.1z"/>
	<path fill="#FFFFFF" d="M82.9,32.3c-26.2,0-52.6,12.9-52.6,41.9l0.2,39.4c0,27.3,16.1,36.2,24.8,41l67.2,33c0.2,0.1,16.2,8,24,17.7
		c7.5,9.4,11.2,19,11.2,29.3v54.1c0,34.9-37.2,56.5-71.6,56.5h-4c-33.4,0-69.4-21.6-69.4-56.5v-68H10v68c0,36.6,37.4,59.2,72.1,59.2
		h4c35.7,0,74.3-22.7,74.3-59.2v-54.1c0-11-3.9-21.1-11.8-31c-8.2-10.2-24.2-18.2-24.9-18.5l-67.2-32.9
		c-8.1-4.5-23.3-12.8-23.3-38.5l-0.2-39.4C33.1,45.3,59.9,35,82.9,35h2.9c11.8,0,50.4,2.7,50.4,37.1l0,66.6h2.7l0-66.6
		c0-29.4-27.5-39.8-53.2-39.8H82.9z"/>
</g>
</svg>
