<?xml version="1.0" encoding="utf-8"?>
<!-- Generator: Adobe Illustrator 16.0.0, SVG Export Plug-In . SVG Version: 6.00 Build 0)  -->
<!DOCTYPE svg PUBLIC "-//W3C//DTD SVG 1.1//EN" "http://www.w3.org/Graphics/SVG/1.1/DTD/svg11.dtd">
<svg version="1.1" id="Layer_1" xmlns="http://www.w3.org/2000/svg" xmlns:xlink="http://www.w3.org/1999/xlink" x="0px" y="0px"
	 width="249.83px" height="185.157px" viewBox="0 0 249.83 185.157" enable-background="new 0 0 249.83 185.157"
	 xml:space="preserve">
<rect fill="#333333" width="249.83" height="185.157"/>
<path fill="#939598" d="M110.036,41.822c0-8.412,3.681-13.146,13.144-13.146c9.463,0,13.144,4.734,13.144,13.146v39.168h38.643
	c6.835,0,13.144,3.678,13.144,13.143c0,9.463-6.309,13.144-13.144,13.144h-38.643v38.643c0,8.413-3.681,13.144-13.144,13.144
	c-9.462,0-13.144-4.73-13.144-13.144v-38.643H71.394c-6.834,0-13.144-3.681-13.144-13.144c0-9.465,6.309-13.143,13.144-13.143
	h38.643V41.822z"/>
</svg>
