<?xml version="1.0" encoding="utf-8"?>
<!-- Generator: Adobe Illustrator 18.1.1, SVG Export Plug-In . SVG Version: 6.00 Build 0)  -->
<!DOCTYPE svg PUBLIC "-//W3C//DTD SVG 1.1//EN" "http://www.w3.org/Graphics/SVG/1.1/DTD/svg11.dtd">
<svg version="1.1" id="Capa_1" xmlns="http://www.w3.org/2000/svg" xmlns:xlink="http://www.w3.org/1999/xlink" x="0px" y="0px"
	 viewBox="0 0 249.8 185.1" enable-background="new 0 0 249.8 185.1" xml:space="preserve">
<g>
	<g>
		<g>
			<path fill="#D0D2D3" d="M236.3,30.2c-0.4-6.9-3-10.5-11.4-10.5H116.1c-3.6,0-9.2-0.7-9.2-6.2c0-9.2-3-13.5-13.1-13.5H36.6
				c-8.9,0-12.5,3.9-12.5,12.8c0,8.3-9.2,5.4-10.4,17.4H236.3z"/>
			
				<radialGradient id="SVGID_1_" cx="27.234" cy="4362.1411" r="0.9855" gradientTransform="matrix(205.5293 0 0 -160.6634 -5477.4224 700882.125)" gradientUnits="userSpaceOnUse">
				<stop  offset="0" style="stop-color:#681E2D"/>
				<stop  offset="0.6037" style="stop-color:#6D1E2D"/>
				<stop  offset="1" style="stop-color:#741E2D"/>
			</radialGradient>
			<path fill="url(#SVGID_1_)" d="M236.7,30.2H12.8c-10,0-13.4,6.3-12.7,13.9c0,0,3.1,34.4,4.2,55.1c1,20.7,2.1,71.8,2.1,71.8
				c0,13-0.2,14,14.3,14l208.9,0.1c13.6,0,14.1,0.1,14.1-13.9c0,0,0.2-33.1,2.1-63.7c1.9-30.5,4-63.4,4-63.4
				C250.3,36.5,247.2,30.2,236.7,30.2"/>
		</g>
	</g>
</g>
<circle fill="#540E0F" cx="124.8" cy="107.3" r="57.8"/>
<path fill="#8F1E2D" d="M148.3,98.8v-7.2c0-12.6-10.8-22.8-23.5-22.8s-23.5,10.2-23.5,22.8v7.2c-5,0-5,2.3-5,5.1v36
	c0,2.8,2.7,5.9,5.5,5.9H148c2.8,0,5.2-3.1,5.2-5.9v-36C153.3,101.1,153.3,98.8,148.3,98.8z M128.9,134.9h-8.5l2.2-12.6
	c-1.3-0.7-2.2-2.4-2.2-4c0-2.4,1.9-4.5,4.3-4.5c2.4,0,4.3,1.8,4.3,4.2c0,1.6-0.9,3.6-2.2,4.4L128.9,134.9z M112.3,98.9v-7.2
	c0-6.8,5.5-12.5,12.5-12.5c7,0,12.5,5.7,12.5,12.5v7.2H112.3z"/>
</svg>
