<?xml version="1.0" encoding="utf-8"?>
<!-- Generator: Adobe Illustrator 16.0.0, SVG Export Plug-In . SVG Version: 6.00 Build 0)  -->
<!DOCTYPE svg PUBLIC "-//W3C//DTD SVG 1.1//EN" "http://www.w3.org/Graphics/SVG/1.1/DTD/svg11.dtd">
<svg version="1.1" id="Layer_1" xmlns="http://www.w3.org/2000/svg" xmlns:xlink="http://www.w3.org/1999/xlink" x="0px" y="0px"
	 width="249.83px" height="185.157px" viewBox="0 0 249.83 185.157" enable-background="new 0 0 249.83 185.157"
	 xml:space="preserve">
<g>
	<defs>
		<rect id="SVGID_1_" width="249.83" height="185.157"/>
	</defs>
	<clipPath id="SVGID_2_">
		<use xlink:href="#SVGID_1_"  overflow="visible"/>
	</clipPath>
	<path clip-path="url(#SVGID_2_)" fill="#D0D2D3" d="M236.296,30.228c-0.382-6.919-3.012-10.514-11.441-10.514H116.099
		c-3.613,0-9.2-0.658-9.2-6.243c0-9.2-2.957-13.47-13.142-13.47H36.584c-8.872,0-12.486,3.942-12.486,12.814
		c0,8.313-9.235,5.373-10.395,17.413H236.296z"/>
</g>
<g>
	<defs>
		<path id="SVGID_3_" d="M12.791,30.227C3.64,30.227,0.034,35.445,0,42.171v0.199c0.003,0.579,0.032,1.169,0.086,1.767
			c0,0,3.132,34.394,4.161,55.09c1.021,20.698,2.138,71.787,2.138,71.787c0,12.989-0.169,14.046,14.292,14.046l208.877,0.097h0.425
			c13.229,0,13.638-0.076,13.638-13.894c0,0,0.204-33.134,2.129-63.661c1.925-30.517,4.036-63.43,4.036-63.43
			c0.487-7.674-2.564-13.945-13.076-13.945H12.791z"/>
	</defs>
	<linearGradient id="SVGID_4_" gradientUnits="userSpaceOnUse" x1="124.915" y1="30.2271" x2="124.915" y2="185.1577">
		<stop  offset="0" style="stop-color:#969696"/>
		<stop  offset="1" style="stop-color:#616161"/>
	</linearGradient>
	<use xlink:href="#SVGID_3_"  overflow="visible" fill="url(#SVGID_4_)"/>
	<clipPath id="SVGID_5_">
		<use xlink:href="#SVGID_3_"  overflow="visible"/>
	</clipPath>
	
		<linearGradient id="SVGID_6_" gradientUnits="userSpaceOnUse" x1="0.0249" y1="185.0605" x2="0.0249" y2="186.0391" gradientTransform="matrix(202.554 0 0 158.3376 120 -29271.6914)">
		<stop  offset="0" style="stop-color:#969696"/>
		<stop  offset="1" style="stop-color:#616161"/>
	</linearGradient>
	<rect y="30.227" clip-path="url(#SVGID_5_)" fill="url(#SVGID_6_)" width="250.269" height="154.93"/>
</g>
<path fill="#524F4F" d="M160.726,121.057h-26.71v26.71h-20.628v-26.71H86.678V100.43h26.709V73.72h20.628v26.709h26.71V121.057z
	 M181.157,109.692c0-32.146-26.017-58.157-58.157-58.157c-32.146,0-58.157,26.017-58.157,58.157
	c0,32.146,26.016,58.157,58.157,58.157C155.146,167.85,181.157,141.833,181.157,109.692"/>
<rect x="64.843" y="51.535" fill="none" width="116.314" height="116.314"/>
</svg>
