<?xml version="1.0" encoding="utf-8"?>
<!-- Generator: Adobe Illustrator 16.0.0, SVG Export Plug-In . SVG Version: 6.00 Build 0)  -->
<!DOCTYPE svg PUBLIC "-//W3C//DTD SVG 1.1//EN" "http://www.w3.org/Graphics/SVG/1.1/DTD/svg11.dtd">
<svg version="1.1" id="Layer_1" xmlns="http://www.w3.org/2000/svg" xmlns:xlink="http://www.w3.org/1999/xlink" x="0px" y="0px"
	 width="237.866px" height="134.089px" viewBox="0 0 237.866 134.089" enable-background="new 0 0 237.866 134.089"
	 xml:space="preserve">
<g>
	<defs>
		<rect id="SVGID_1_" width="237.866" height="134.089"/>
	</defs>
	<clipPath id="SVGID_2_">
		<use xlink:href="#SVGID_1_"  overflow="visible"/>
	</clipPath>
	<path clip-path="url(#SVGID_2_)" fill="#AD152F" d="M31.378,0C12.901,0,0,10.712,0,26.051V43.21
		c0,16.618,11.072,22.539,15.242,24.77c3.481,1.855,23.246,11.397,25.836,12.652c1.54,0.768,4.155,2.464,5.081,3.642
		c1.075,1.363,1.449,2.015,1.449,3.904v18.829c0,7.805-8.934,10.639-14.936,10.639h-1.293c-6.003,0-14.934-2.834-14.934-10.639
		V82.528H0v24.479c0,15.441,13.49,27.082,31.379,27.082h1.293c17.887,0,31.383-11.641,31.383-27.082V88.178
		c0-6.842-2.517-10.955-4.978-14.084c-3.571-4.528-9.524-7.617-10.677-8.192c-6.208-3-22.689-10.976-25.403-12.424
		c-3.96-2.118-6.552-3.973-6.552-10.268V26.051c0-9.336,13.407-9.606,14.934-9.606h1.293c1.527,0,14.936,0.27,14.936,9.606v25.641
		h16.447V26.051C64.055,10.712,51.148,0,32.671,0H31.378z"/>
	<path clip-path="url(#SVGID_2_)" fill="#FFFFFF" d="M31.378,7.707c-11.783,0-23.671,5.671-23.671,18.344V43.21
		c0,11.999,7.266,15.885,11.168,17.969c3.428,1.835,25.42,12.444,25.644,12.547c0.047,0.021,5.192,2.604,7.696,5.783
		c1.914,2.428,3.099,4.722,3.099,8.669v18.828c0,12.043-11.389,18.342-22.643,18.342h-1.293c-11.252,0-22.641-6.299-22.641-18.342
		V81.496h-1.03v25.511c0,12.715,11.907,19.375,23.671,19.375h1.293c11.764,0,23.673-6.66,23.673-19.375V88.179
		c0-4.237-1.273-6.711-3.325-9.313c-2.641-3.352-7.829-5.948-8.049-6.06C44.743,72.694,22.773,62.1,19.356,60.273
		c-3.708-1.98-10.619-5.679-10.619-17.063V26.051c0-11.96,11.373-17.313,22.641-17.313h1.293c11.271,0,22.643,5.353,22.643,17.313
		v26.674h1.03V26.051c0-12.673-11.888-18.344-23.673-18.344H31.378z"/>
	<path clip-path="url(#SVGID_2_)" fill="#FFFFFF" d="M31.248,3.684c-13.71,0-27.592,7.734-27.592,22.511V43.3
		c0,12.825,7.425,18.301,13.008,21.306L42.31,77.141c0.054,0.027,4.421,2.036,6.479,4.654c1.499,1.903,2.498,3.862,2.498,7.222
		v17.277c0,10.372-9.403,15.018-18.714,15.018h-1.075c-9.015,0-18.716-4.563-18.716-14.59V81.684h-1.026v25.038
		c0,10.735,10.232,15.624,19.742,15.624h1.075c9.826,0,19.739-4.967,19.739-16.052V89.017c0-3.657-1.081-5.783-2.716-7.859
		c-2.213-2.813-6.659-4.861-6.849-4.945L17.132,63.693c-5.334-2.874-12.45-8.117-12.45-20.393V26.195
		c0-14.762,13.771-21.487,26.565-21.487h1.512c12.796,0,26.567,6.621,26.567,21.156V52.24h1.028V25.864
		c0-15.241-14.304-22.18-27.595-22.18H31.248z"/>
	<path clip-path="url(#SVGID_2_)" fill="#FFFFFF" d="M31.174,11.682c-9.839,0-19.767,4.868-19.767,15.746l0.058,14.832
		c0,10.283,6.063,13.615,9.324,15.409l25.294,12.394c0.06,0.029,6.096,3.007,9.027,6.67c2.831,3.53,4.203,7.14,4.203,11.016v20.367
		c0,13.129-13.975,21.251-26.924,21.251h-1.514c-12.547,0-26.091-8.122-26.091-21.251V81.614H3.758v26.501
		c0,13.764,14.076,22.284,27.117,22.284h1.514c13.442,0,27.952-8.521,27.952-22.284V87.748c0-4.119-1.449-7.936-4.431-11.66
		c-3.075-3.843-9.117-6.828-9.373-6.952L21.262,56.755c-3.05-1.676-8.767-4.821-8.767-14.495l-0.058-14.832
		c0-10.858,10.092-14.715,18.737-14.715h1.076c4.452,0,18.971,1.004,18.971,13.946l-0.006,25.843h1.028l0.007-25.843
		c0-11.044-10.334-14.977-20-14.977H31.174z"/>
	<path clip-path="url(#SVGID_2_)" fill="#FFFFFF" d="M79.653,93.362c-0.396-1.047-1.147-1.722-2.271-1.722
		c-1.566,0-2.168,0.814-2.168,1.935c0,2.665,5.996,2.172,5.996,6.695c0,2.531-2.172,4.346-5.231,4.346
		c-1.088,0-2.25-0.256-3.179-0.853c0.237-0.827,0.454-1.655,0.572-2.507h0.374c0.301,1.363,1.364,2.172,2.728,2.172
		c1.221,0,2.31-0.688,2.31-2.05c0-3.158-5.887-2.016-5.887-6.774c0-2.271,1.561-4.146,4.562-4.146c1.422,0,2.684,0.537,3.119,0.949
		c-0.237,0.634-0.435,1.278-0.633,1.954H79.653z"/>
	<path clip-path="url(#SVGID_2_)" fill="#FFFFFF" d="M86.919,91.885h1.222c1.023,0,1.832,1.047,1.832,2.621
		c0,1.206-0.469,2.331-1.755,2.686c-0.415,0.097-0.869,0.122-1.299,0.14V91.885z M86.919,98.42c3.549,0,6.117-0.755,6.117-4.272
		c0-2.228-1.48-3.334-4.225-3.334h-4.861v13.547c0.495-0.037,0.992-0.098,1.485-0.098c0.494,0,0.985,0.061,1.484,0.098V98.42z"/>
	<path clip-path="url(#SVGID_2_)" fill="#FFFFFF" d="M102.553,91.641c2.96,0,4.142,2.921,4.142,5.477c0,3.275-1.359,6.312-4.4,6.312
		c-2.962,0-4.126-2.72-4.126-5.288C98.168,93.722,99.808,91.641,102.553,91.641 M109.974,97.483
		c-0.022-3.057-1.678-7.023-7.303-7.023c-4.917,0-7.777,3.177-7.777,7.107c0,4.479,2.94,7.05,7.302,7.05
		C107.031,104.617,109.995,101.343,109.974,97.483"/>
	<path clip-path="url(#SVGID_2_)" fill="#FFFFFF" d="M115.776,91.886c1.205,0,2.689-0.16,3.005,1.477
		c0.077,0.414,0.097,0.713,0.097,0.985c0,2.039-1.025,3.024-3.102,2.824V91.886z M112.82,104.36
		c0.492-0.037,0.983-0.097,1.477-0.097c0.493,0,0.99,0.06,1.48,0.097V98.02h0.142c0.433,0.754,0.988,1.654,1.282,2.188l2.349,4.152
		c0.591-0.037,1.183-0.097,1.775-0.097c0.614,0,1.205,0.06,1.8,0.097l-0.771-1.229c-1.183-1.832-2.409-3.651-3.496-5.546
		c1.835-0.394,3.081-1.618,3.081-3.553c0-1.345-0.594-2.235-1.719-2.824c-0.832-0.432-2.271-0.395-3.198-0.395h-4.203V104.36z"/>
	<path clip-path="url(#SVGID_2_)" fill="#FFFFFF" d="M131.118,104.36c-0.494-0.037-0.987-0.097-1.48-0.097s-0.994,0.06-1.479,0.097
		V92.212c-1.398,0-2.646,0.146-3.673,0.281c0.037-0.281,0.098-0.548,0.098-0.853c0-0.268-0.061-0.546-0.098-0.827h10.168
		c-0.043,0.281-0.103,0.56-0.103,0.827c0,0.305,0.06,0.571,0.103,0.853c-1.163-0.135-2.33-0.281-3.535-0.281V104.36z"/>
	<path clip-path="url(#SVGID_2_)" fill="#FFFFFF" d="M143.435,93.362c-0.389-1.047-1.145-1.722-2.264-1.722
		c-1.565,0-2.181,0.814-2.181,1.935c0,2.665,6.008,2.172,6.008,6.695c0,2.531-2.17,4.346-5.232,4.346
		c-1.09,0-2.254-0.256-3.177-0.853c0.237-0.827,0.456-1.655,0.571-2.507h0.372c0.296,1.363,1.364,2.172,2.725,2.172
		c1.225,0,2.313-0.688,2.313-2.05c0-3.158-5.885-2.016-5.885-6.774c0-2.271,1.565-4.146,4.558-4.146
		c1.426,0,2.691,0.537,3.117,0.949c-0.23,0.634-0.426,1.278-0.624,1.954H143.435z"/>
	<path clip-path="url(#SVGID_2_)" fill="#FFFFFF" d="M160.178,93.362c-0.396-1.047-1.146-1.722-2.271-1.722
		c-1.559,0-2.17,0.814-2.17,1.935c0,2.665,6.006,2.172,6.006,6.695c0,2.531-2.182,4.346-5.235,4.346
		c-1.082,0-2.252-0.256-3.176-0.853c0.231-0.827,0.448-1.655,0.571-2.507h0.371c0.298,1.363,1.364,2.172,2.727,2.172
		c1.224,0,2.308-0.688,2.308-2.05c0-3.158-5.881-2.016-5.881-6.774c0-2.271,1.557-4.146,4.56-4.146c1.418,0,2.685,0.537,3.121,0.949
		c-0.243,0.634-0.437,1.278-0.63,1.954H160.178z"/>
	<path clip-path="url(#SVGID_2_)" fill="#FFFFFF" d="M167.656,98.651c-1.478-2.545-2.781-5.21-4.239-7.838
		c0.59,0.042,1.187,0.097,1.776,0.097c0.589,0,1.186-0.055,1.776-0.097c0.529,1.082,1.127,2.35,1.678,3.517
		c0.532,1.107,1.007,2.069,1.243,2.367c0.749-0.93,2.208-4.204,2.964-5.884c0.317,0.042,0.633,0.06,0.962,0.06
		c0.316,0,0.632-0.018,0.949-0.06c-1.424,2.532-2.896,4.917-4.139,7.45v6.097c-0.499-0.037-0.996-0.097-1.484-0.097
		c-0.495,0-0.985,0.06-1.486,0.097V98.651z"/>
	<path clip-path="url(#SVGID_2_)" fill="#FFFFFF" d="M183.494,93.362c-0.388-1.047-1.145-1.722-2.27-1.722
		c-1.56,0-2.175,0.814-2.175,1.935c0,2.665,6.001,2.172,6.001,6.695c0,2.531-2.168,4.346-5.226,4.346
		c-1.089,0-2.253-0.256-3.185-0.853c0.244-0.827,0.456-1.655,0.572-2.507h0.379c0.297,1.363,1.361,2.172,2.725,2.172
		c1.225,0,2.313-0.688,2.313-2.05c0-3.158-5.888-2.016-5.888-6.774c0-2.271,1.561-4.146,4.562-4.146
		c1.425,0,2.682,0.537,3.116,0.949c-0.23,0.634-0.435,1.278-0.628,1.954H183.494z"/>
	<path clip-path="url(#SVGID_2_)" fill="#FFFFFF" d="M193.401,104.36c-0.485-0.037-0.984-0.097-1.478-0.097
		c-0.492,0-0.987,0.06-1.48,0.097V92.212c-1.399,0-2.647,0.146-3.676,0.281c0.043-0.281,0.094-0.548,0.094-0.853
		c0-0.268-0.051-0.546-0.094-0.827h10.174c-0.047,0.281-0.103,0.56-0.103,0.827c0,0.305,0.056,0.571,0.103,0.853
		c-1.168-0.135-2.334-0.281-3.54-0.281V104.36z"/>
	<path clip-path="url(#SVGID_2_)" fill="#FFFFFF" d="M207.107,90.813c-0.043,0.281-0.099,0.572-0.099,0.852
		c0,0.28,0.056,0.571,0.099,0.852c-1.205-0.158-2.551-0.316-4.564-0.28v4.249h2.057c0.889,0,1.699-0.086,2.422-0.182
		c-0.033,0.278-0.097,0.571-0.097,0.852c0,0.272,0.063,0.571,0.097,0.852c-0.723-0.104-1.533-0.183-2.422-0.183h-2.057v5.014
		c2.014-0.023,3.359-0.12,4.564-0.278c-0.043,0.278-0.099,0.572-0.099,0.851c0,0.28,0.056,0.573,0.099,0.854h-7.524v-13.45H207.107z
		"/>
	<path clip-path="url(#SVGID_2_)" fill="#FFFFFF" d="M222.067,90.813c0.277,0.042,0.56,0.097,0.828,0.097
		c0.279,0,0.57-0.055,0.853-0.097c0.615,5.313,1.07,9.615,1.736,13.547c-0.55-0.037-1.088-0.097-1.641-0.097
		c-0.548,0-1.047,0.06-1.595,0.097c-0.157-3.14-0.554-6.16-0.851-9.203c-1.497,3.02-2.983,6.038-4.384,9.106
		c-0.256-0.043-0.492-0.062-0.748,0c-1.259-2.728-2.822-5.788-4.328-8.888c-0.447,3.471-0.766,6.222-0.827,8.984
		c-0.317-0.037-0.607-0.097-0.924-0.097c-0.318,0-0.598,0.06-0.914,0.097c0.719-3.967,1.345-8.546,2.021-13.547
		c0.268,0.042,0.531,0.097,0.804,0.097c0.279,0,0.56-0.055,0.835-0.097c1.415,3.103,2.975,6.183,4.538,9.28
		C218.891,97.288,220.57,94.197,222.067,90.813"/>
	<path clip-path="url(#SVGID_2_)" fill="#FFFFFF" d="M234.533,93.362c-0.405-1.047-1.153-1.722-2.276-1.722
		c-1.56,0-2.169,0.814-2.169,1.935c0,2.665,6.002,2.172,6.002,6.695c0,2.531-2.173,4.346-5.233,4.346
		c-1.083,0-2.251-0.256-3.177-0.853c0.232-0.827,0.447-1.655,0.57-2.507h0.376c0.295,1.363,1.359,2.172,2.723,2.172
		c1.223,0,2.311-0.688,2.311-2.05c0-3.158-5.883-2.016-5.883-6.774c0-2.271,1.558-4.146,4.558-4.146
		c1.424,0,2.683,0.537,3.123,0.949c-0.236,0.634-0.44,1.278-0.634,1.954H234.533z"/>
	<path clip-path="url(#SVGID_2_)" fill="#FFFFFF" d="M163.684,79.571V51.926c0,0,2.573-15.109-19.574-15.109
		c-20.43,0-22.323,12.191-22.323,12.191l6.527,1.028c0,0,0.854-9.613,15.452-9.613c14.592,0,14.252,9.269,14.252,10.988v3.263
		c0,0-26.098,1.031-34.338,7.726c-8.247,6.698-6.356,21.803,10.469,23.008c16.833,1.205,23.697-6.183,23.697-6.183
		s0.512,4.808,2.059,5.672h6.523C166.428,84.897,163.684,82.658,163.684,79.571 M157.846,75.452c0,0-5.665,7.035-19.573,6.524
		c-13.909-0.513-16.034-11.723-9.783-17.172c6.694-5.837,29.356-7.039,29.356-7.039V75.452z"/>
	<path clip-path="url(#SVGID_2_)" fill="#FFFFFF" d="M235.115,79.571V51.926c0,0,2.579-15.109-19.572-15.109
		c-20.438,0-22.324,12.191-22.324,12.191l6.523,1.028c0,0,0.865-9.613,15.461-9.613c14.594,0,14.244,9.269,14.244,10.988v3.263
		c0,0-26.1,1.031-34.343,7.726c-8.242,6.698-6.354,21.803,10.476,23.008c16.829,1.205,23.697-6.183,23.697-6.183
		s0.52,4.808,2.063,5.672h6.525C237.866,84.897,235.115,82.658,235.115,79.571 M229.277,75.452c0,0-5.665,7.035-19.578,6.524
		c-13.906-0.513-16.031-11.723-9.787-17.172c6.696-5.837,29.365-7.039,29.365-7.039V75.452z"/>
	<path clip-path="url(#SVGID_2_)" fill="#FFFFFF" d="M177.936,43.414v-5.568h-6.006v47.051h6.006V49.432
		c2.575-3.609,8.856-10.92,14.425-5.75l0.519-4.805C192.879,38.877,186.303,32.629,177.936,43.414"/>
	<path clip-path="url(#SVGID_2_)" fill="#FFFFFF" d="M116.794,60.854c0-13.386-7.541-24.241-23.938-24.241
		c-16.399,0-24.285,10.855-24.285,24.241c0,13.392,7.886,24.243,24.285,24.243c16.397,0,20-6.725,23.779-11.36l-6.352-1.207
		c-4.465,7.56-10.862,8.912-17.513,8.912c-9.826,0-17.831-8.85-18.15-19.898h42.189C116.826,61.144,116.794,61.259,116.794,60.854
		 M74.749,57.939c0.976-9.984,7.047-17.665,18.021-17.665c11.155,0,16.87,7.432,17.686,17.663L74.749,57.939z"/>
</g>
</svg>
