<?xml version="1.0" encoding="utf-8"?>
<!-- Generator: Adobe Illustrator 16.0.0, SVG Export Plug-In . SVG Version: 6.00 Build 0)  -->
<!DOCTYPE svg PUBLIC "-//W3C//DTD SVG 1.1//EN" "http://www.w3.org/Graphics/SVG/1.1/DTD/svg11.dtd">
<svg version="1.1" id="Layer_1" xmlns="http://www.w3.org/2000/svg" xmlns:xlink="http://www.w3.org/1999/xlink" x="0px" y="0px"
	 width="433.4px" height="428.4px" viewBox="-78.4 -174.5 433.4 428.4" enable-background="new -78.4 -174.5 433.4 428.4"
	 xml:space="preserve">
<g>
	<g>
		<path opacity="0.7" fill="#FFFFFF" d="M253.1-58.4l-34.5-113.1L-72.2-82.9l66.9,219.6l41-12.5v46.9h304.1V-58.4H253.1z M35.7,93.3
			l-21.4,6.5L-35.4-63.2L199-134.7l23.2,76.3H35.7V93.3z M310.2,141.6h-245V-28.9h245V141.6z"/>
		<path opacity="0.7" fill="#D30900" d="M104.2,17c0-12.4,10.1-22.5,22.5-22.5c12.4,0,22.5,10.1,22.5,22.5
			c0,12.4-10.1,22.5-22.5,22.5C114.3,39.5,104.2,29.4,104.2,17z"/>
		<polygon opacity="0.7" fill="#FBFFFF" points="218.5,17.7 181.2,70.7 160.9,49.8 103.6,114.9 282.6,114.9 		"/>
	</g>
	<g>
		<path opacity="0.7" fill="#FFFFFF" d="M-73,250.7v-30.3h8l6.3,11.1c1.8,3.2,3.6,7,4.9,10.4h0.1c-0.4-4-0.5-8.1-0.5-12.7v-8.8h6.3
			v30.3h-7.2l-6.5-11.7c-1.8-3.2-3.8-7.2-5.3-10.7H-67c0.2,4,0.3,8.3,0.3,13.3v9.1H-73z"/>
		<path opacity="0.7" fill="#FFFFFF" d="M-13.3,235.2c0,10-6,16-14.9,16c-9,0-14.3-6.8-14.3-15.5c0-9.1,5.9-15.9,14.8-15.9
			C-18.4,219.8-13.3,226.8-13.3,235.2z M-35.2,235.5c0,6,2.8,10.2,7.4,10.2c4.6,0,7.3-4.4,7.3-10.3c0-5.5-2.6-10.2-7.3-10.2
			C-32.5,225.2-35.2,229.6-35.2,235.5z"/>
		<path opacity="0.7" fill="#FFFFFF" d="M9,220.3v30.3H2.1v-30.3H9z"/>
		<path opacity="0.7" fill="#FFFFFF" d="M41.4,239c-0.1-3.6-0.3-8.1-0.3-12.5h-0.1c-1,3.9-2.3,8.2-3.4,11.7L34,250.2h-5.4l-3.2-11.7
			c-1-3.6-2-7.9-2.7-11.9h-0.1c-0.1,4.1-0.3,8.8-0.5,12.6l-0.6,11.5h-6.3l1.9-30.3h9.1l3,10.1c1,3.5,1.9,7.3,2.6,10.8h0.2
			c0.8-3.5,1.8-7.5,2.9-10.9l3.2-10.1h9l1.6,30.3h-6.7L41.4,239z"/>
		<path opacity="0.7" fill="#FFFFFF" d="M61.7,242.9l-2.2,7.8h-7.1l9.2-30.3h9l9.5,30.3h-7.4l-2.3-7.8H61.7z M69.4,237.7l-1.9-6.4
			c-0.5-1.8-1.1-4-1.5-5.8h-0.1c-0.4,1.8-0.9,4.1-1.4,5.8l-1.8,6.4H69.4z"/>
		<path opacity="0.7" fill="#FFFFFF" d="M109.3,249.3c-2.1,0.7-6.1,1.7-10.1,1.7c-5.5,0-9.5-1.4-12.3-4c-2.7-2.7-4.3-6.6-4.3-11.1
			c0-10.1,7.4-15.8,17.3-15.8c3.9,0,6.9,0.8,8.4,1.4l-1.4,5.5c-1.7-0.8-3.7-1.3-7-1.3c-5.7,0-10.1,3.2-10.1,9.8c0,6.3,4,9.9,9.6,9.9
			c1.5,0,2.8-0.2,3.3-0.4v-6.4H98v-5.4h11.3V249.3z"/>
		<path opacity="0.7" fill="#FFFFFF" d="M133.6,237.8h-11.2v7.2h12.5v5.6h-19.3v-30.3h18.7v5.6h-11.8v6.3h11.2V237.8z"/>
		<path opacity="0.7" fill="#FFFFFF" d="M150.7,243.6c1.8,0.9,4.7,1.9,7.6,1.9c3.1,0,4.8-1.3,4.8-3.3c0-1.9-1.4-3-5.1-4.2
			c-5-1.8-8.4-4.6-8.4-9c0-5.2,4.4-9.1,11.5-9.1c3.5,0,5.9,0.7,7.7,1.5l-1.5,5.5c-1.2-0.6-3.4-1.4-6.3-1.4c-3,0-4.4,1.4-4.4,2.9
			c0,1.9,1.7,2.8,5.6,4.3c5.4,2,7.8,4.8,7.8,9c0,5.1-3.9,9.4-12.2,9.4c-3.5,0-6.9-0.9-8.6-1.9L150.7,243.6z"/>
		<path opacity="0.7" fill="#FFFFFF" d="M193.7,237.8h-11.2v7.2H195v5.6h-19.3v-30.3h18.7v5.6h-11.8v6.3h11.2V237.8z"/>
		<path opacity="0.7" fill="#FFFFFF" d="M200.6,220.3h6.8v24.6h12.1v5.8h-18.9V220.3z"/>
		<path opacity="0.7" fill="#FFFFFF" d="M242.5,237.8h-11.2v7.2h12.5v5.6h-19.3v-30.3h18.7v5.6h-11.8v6.3h11.2V237.8z"/>
		<path opacity="0.7" fill="#FFFFFF" d="M271.6,249.8c-1.2,0.6-4.1,1.3-7.7,1.3c-10.5,0-15.9-6.6-15.9-15.2
			c0-10.3,7.4-16.1,16.6-16.1c3.6,0,6.3,0.7,7.5,1.3l-1.4,5.4c-1.3-0.6-3.3-1.1-5.8-1.1c-5.4,0-9.6,3.3-9.6,10
			c0,6.1,3.6,9.9,9.7,9.9c2.1,0,4.4-0.4,5.8-1L271.6,249.8z"/>
		<path opacity="0.7" fill="#FFFFFF" d="M283.6,226.1h-8.2v-5.8h23.3v5.8h-8.3v24.6h-6.8V226.1z"/>
		<path opacity="0.7" fill="#FFFFFF" d="M321.3,237.8h-11.2v7.2h12.5v5.6h-19.3v-30.3H322v5.6h-11.8v6.3h11.2V237.8z"/>
		<path opacity="0.7" fill="#FFFFFF" d="M328.2,220.8c2.5-0.4,5.8-0.7,9.2-0.7c5.8,0,9.6,1.1,12.5,3.2c3.1,2.3,5.1,6.1,5.1,11.4
			c0,5.8-2.1,9.8-5,12.3c-3.2,2.7-8.1,3.9-14,3.9c-3.6,0-6.1-0.2-7.8-0.5V220.8z M335,245.5c0.6,0.1,1.6,0.1,2.4,0.1
			c6.3,0,10.3-3.4,10.3-10.6c0-6.3-3.7-9.6-9.6-9.6c-1.5,0-2.5,0.1-3.1,0.3V245.5z"/>
	</g>
</g>
</svg>
