<?xml version="1.0" encoding="utf-8"?>
<!-- Generator: Adobe Illustrator 16.0.0, SVG Export Plug-In . SVG Version: 6.00 Build 0)  -->
<!DOCTYPE svg PUBLIC "-//W3C//DTD SVG 1.1//EN" "http://www.w3.org/Graphics/SVG/1.1/DTD/svg11.dtd">
<svg version="1.1" id="Layer_1" xmlns="http://www.w3.org/2000/svg" xmlns:xlink="http://www.w3.org/1999/xlink" x="0px" y="0px"
	 width="411.668px" height="352.332px" viewBox="0 0 411.668 352.332" enable-background="new 0 0 411.668 352.332"
	 xml:space="preserve">
<path fill="#FFFFFF" d="M206.346,352.666c-23.802,0-46.883-4.627-68.647-13.829c-21.015-8.883-39.865-21.629-56.067-37.797
	c-16.18-16.216-28.901-35.063-37.771-56.079l46.384-19.611c6.385,14.986,15.452,28.47,27.042,40.061
	c11.565,11.613,25.05,20.669,40.037,27.018c31.041,13.091,67.011,13.091,98.067,0c14.984-6.349,28.469-15.404,40.059-27.018
	c11.54-11.591,20.646-25.074,26.994-40.061l46.408,19.611c-8.859,21.016-21.579,39.863-37.771,56.079
	c-16.192,16.168-35.066,28.914-56.055,37.797C253.248,348.039,230.165,352.666,206.346,352.666"/>
<path fill="#FFFFFF" d="M322.442,127.304c-6.349-15.022-15.429-28.444-26.994-40.035c-11.566-11.59-25.049-20.694-40.059-27.043
	c-31.03-13.128-67.026-13.128-98.055,0c-14.986,6.349-28.496,15.453-40.062,27.043c-11.564,11.591-20.657,25.013-27.005,40.035
	l-46.42-19.624c8.894-20.99,21.592-39.838,37.772-56.066c16.203-16.178,35.077-28.876,56.066-37.797
	c43.542-18.393,93.809-18.393,137.339,0c20.988,8.92,39.862,21.619,56.055,37.797c16.191,16.229,28.886,35.077,37.796,56.066
	L322.442,127.304z"/>
<path fill="#FFFFFF" d="M319.489,203.08c3.938,5.71,10.385,5.71,14.297,0l26.353-38.25c3.913-5.672,10.386-15.022,14.296-20.744
	l26.356-38.191c3.911-5.72,1.477-10.408-5.465-10.408h-56.078h-25.196h-56.129c-6.913,0-9.4,4.688-5.462,10.408l26.354,38.191
	c3.937,5.722,10.359,15.072,14.321,20.744L319.489,203.08z"/>
<path fill="#FFFFFF" d="M92.212,164.558c-4.134-5.573-10.937-5.524-15.096,0l-25.554,34.217
	c-4.159,5.535-10.938,14.643-15.097,20.152l-25.567,34.229c-4.159,5.512-1.871,10.063,5.057,10.063h56.116h25.197h56.115
	c6.928,0,9.204-4.552,5.069-10.063l-25.579-34.229c-4.158-5.51-10.937-14.592-15.096-20.152L92.212,164.558z"/>
<rect x="8.832" fill="none" width="393.827" height="352.666"/>
</svg>
